<svg version="1.1" id="Layer_1" xmlns="http://www.w3.org/2000/svg" xmlns:xlink="http://www.w3.org/1999/xlink" x="0px" y="0px" viewBox="0 0 1130 482" style="enable-background:new 0 0 1130 482;" xml:space="preserve">
<style type="text/css">
	.st0{fill:#FFFFFF;}
	.st1{fill:#DE0B2F;}
	.st2{fill:#FFC17B;}
</style>
<rect x="0.36" y="-0.09" class="st0" width="1129.99" height="482.52"></rect>
<polygon class="st1" points="425.25,239.36 457.9,239.36 460.23,228 427.58,228 "></polygon>
<g>
	<path class="st2" d="M360.59,420.71c-35.62,0-68.51-11.65-92.58-32.79c-3.12-2.74-3.43-7.49-0.69-10.61
		c2.74-3.12,7.49-3.43,10.61-0.69c21.33,18.73,50.69,29.05,82.66,29.05c49.63,0,93.9-11.22,128.03-32.44
		c19.68-12.24,35.88-27.83,47.43-45.35c-84.29-19.09-103.47-58.47-107.31-80.73c-4.73-27.39,8.76-55.76,33.59-70.58
		c22.04-13.16,47.04-11.73,66.88,3.83c37.79,29.64,51.09,77.48,34.73,124.86c-1.36,3.93-2.91,7.8-4.64,11.62
		c42.8,5.47,85.93-5.99,125.41-33.48c8.62-6.01,17.05-12.78,25.15-20.19c-15.33-8.79-28.5-17.72-39.66-26.24
		c-64.39-49.12-91.02-104.39-94.46-139.75c-2.6-26.71,7.42-45.35,26.8-49.84c45.87-10.62,73.65,43.43,85.08,72.55
		c3.17-5.89,7.2-12.84,11.95-19.98c17.16-25.79,34.88-40.89,52.67-44.88c14.56-3.26,28.53,0.92,41.54,12.45
		c21.74,19.27,18.89,65.77-7.26,118.47c-13.23,26.66-31.1,51.99-51.61,73.65c49.83,25.21,119.63,47.18,213.84,50.37
		c4.15,0.14,7.4,3.62,7.26,7.77c-0.14,4.15-3.61,7.39-7.77,7.26c-99.48-3.37-172.72-27.25-224.49-54.23
		c-9.74,9.23-19.95,17.62-30.45,24.93C648.96,326.6,600.2,338.72,551.83,331c-12.89,21.44-31.87,40.43-55.28,54.99
		C460.04,408.71,413.03,420.71,360.59,420.71z M493.41,182.64c-7.8,0-15.75,2.27-23.39,6.83c-19.22,11.48-30.1,34.14-26.48,55.11
		c3.27,18.91,20.72,52.81,100.36,69.62c2.24-4.53,4.18-9.15,5.8-13.85c14.21-41.13,2.79-82.56-29.79-108.12
		C511.78,185.85,502.69,182.64,493.41,182.64z M613.83,61.11c-2.62,0-5.25,0.31-7.91,0.93c-16.34,3.79-16.1,24.85-15.23,33.73
		c2.99,30.72,27.99,83.01,88.61,129.25c11.61,8.85,25.48,18.18,41.8,27.29c20.69-21.2,38.73-46.4,51.94-73
		c22.34-45.01,26.76-86.35,10.75-100.53c-9.31-8.25-18.56-11.21-28.27-9.03c-28.19,6.31-54.48,54.57-62.22,72.63
		c-1.26,2.93-4.21,4.77-7.4,4.54c-3.18-0.2-5.88-2.39-6.75-5.45c-0.07-0.23-6.87-23.85-19.96-45.48
		C645.16,72.8,629.93,61.11,613.83,61.11z"></path>
</g>
<path class="st1" d="M137.7,228c-9.49,0-16.79,3.9-20.02,6.84c0.1,3.65,0.61,7.02,1.56,10.09c3.23-3.12,9.2-6.13,15.7-6.13
	c9.33,0,17.12,5.72,18.91,15.51h-27.3c0,2.82-0.72,5.66-1.09,8.5h28.47c-1.59,10.3-9.28,17.51-21.17,17.51
	c-7,0-12.95-2.54-15.81-4.45c-0.34,4.14,0.07,8.28,1.67,12.42c2.73,1.11,8.3,2.58,14.53,2.58c19.19,0,32.66-13.72,32.66-33.3
	C165.81,239.68,154.33,228,137.7,228z"></path>
<path class="st1" d="M207.36,279.55c-10.95,0-19.25-7.25-19.25-19.9c0-11.71,6.71-20.34,17.66-20.34c7.12,0,12.87,3.57,15.22,6.27
	c1.9-4.69,2.91-9.19,2.8-13.22c-2.71-1.87-9.11-4.35-16.87-4.35c-18.21,0-31.15,13.45-31.15,32.7c0,18.23,11.58,30.16,28.17,30.16
	c9.17,0,16.06-3.67,19.29-6.45c0.84-4.01,1.46-7.64,1.07-10.69C221.5,276.24,214.85,279.55,207.36,279.55z"></path>
<path class="st1" d="M228.1,240.55h21.82v30.08c0,10.28,0.13,16.84,0.23,18.92c3.98,0.29,7.9,0.15,12.18-0.38
	c-0.14-2.44-0.32-9.15-0.32-18.54v-30.08h20.41c0.47-3.68,1.41-7.38,1.41-11.05h-54.32C229.52,233.17,228.57,236.87,228.1,240.55z"></path>
<path class="st1" d="M340.43,250.98c0-15.92-7.95-22.98-21.92-22.98c-11.15,0-19.71,4.39-23.51,7.71c0.11,3.65,0.61,7.02,1.55,10.08
	c4.15-3.3,11.78-6.28,19.02-6.28c8.53,0,12.79,4.08,12.79,12.48v3.07c-1.74-0.17-4.03-0.31-6.64-0.31c-20.05,0-30.7,8.31-30.7,20.49
	c0,9.65,6.66,15.61,16.41,15.61c8.67,0,17.27-4.67,21.67-13.39c0.81,5.45,2.21,10.05,3.78,12.98c3.94-0.23,7.35-1.08,10.24-2.52
	c-1.72-4.65-2.69-12.93-2.69-21.42V250.98z M311.23,280.26L311.23,280.26c-4.42,0-8.16-2.35-8.16-7.11
	c0-5.96,6.09-10.45,19.34-10.45c2.15,0,3.98,0.11,5.43,0.26C325.76,274.99,317.76,280.26,311.23,280.26z"></path>
<path class="st1" d="M416.93,279.81c-3.12,0-6.03-0.64-8.6-1.6v-16.08c0-13.6,7.71-22.8,16.14-22.8c0.26,0,0.53,0.01,0.78,0.03
	l2.33-11.36c-8.97,0-16.12,6.05-19.25,15.24v-11.25v-37.61c-4.18,1.16-8.52,1.77-12.09,3.41v30.69c-2.05-0.3-4.22-0.48-6.45-0.48
	c-20.68,0-34.42,14.48-34.42,34.72c0,16.26,8.62,28.14,21.61,28.14c9.14,0,16.36-6.49,19.25-16.25v12.26v29.68
	c4.18-1.16,8.52-1.77,12.09-3.41v-22.76c2.02,0.3,4.16,0.48,6.36,0.48l2.27-11.05C416.95,279.81,416.94,279.81,416.93,279.81z
	 M396.24,256.73c0,13.6-7.71,22.8-16.14,22.8c-7.53,0-12.39-7.77-12.39-18.19c0-13.15,7.99-22.3,19.92-22.3
	c3.12,0,6.03,0.64,8.6,1.6V256.73z"></path>
<path class="st1" d="M543.22,250.83c0-13.88-7.44-22.83-21.68-22.83c-17.22,0-29.84,13.32-29.84,32.1
	c0,18.59,11.89,30.76,28.71,30.76c9.49,0,17.43-4.01,20.81-7.04c0.77-4,1.33-7.62,0.88-10.66c-3.13,2.78-10.03,6.46-18.11,6.46
	c-10.97,0-18.72-6.68-19.99-17.36l37.69-0.52C542.38,259.76,543.22,255.44,543.22,250.83z M530.68,252.46l-26.28,0.9
	c1.77-8.36,7.47-15,16.35-15c6.64,0,10.39,3.7,10.39,10.02C531.14,249.62,530.99,251.01,530.68,252.46z"></path>
<path class="st1" d="M548.4,240.55h21.82v30.08c0,10.28,0.13,16.84,0.23,18.92c3.98,0.29,7.9,0.15,12.18-0.38
	c-0.14-2.44-0.32-9.15-0.32-18.54v-30.08h20.41c0.47-3.68,1.41-7.38,1.41-11.05h-54.32C549.81,233.17,548.87,236.87,548.4,240.55z"></path>
<path class="st1" d="M660.73,250.98c0-15.92-7.95-22.98-21.92-22.98c-11.15,0-19.71,4.39-23.51,7.71c0.11,3.65,0.61,7.02,1.55,10.08
	c4.15-3.3,11.78-6.28,19.02-6.28c8.53,0,12.79,4.08,12.79,12.48v3.07c-1.74-0.17-4.03-0.31-6.64-0.31c-20.05,0-30.7,8.31-30.7,20.49
	c0,9.65,6.66,15.61,16.41,15.61c8.67,0,17.27-4.67,21.67-13.39c0.81,5.45,2.21,10.05,3.78,12.98c3.94-0.23,7.35-1.08,10.24-2.52
	c-1.72-4.65-2.69-12.93-2.69-21.42V250.98z M631.53,280.26L631.53,280.26c-4.42,0-8.16-2.35-8.16-7.11
	c0-5.96,6.09-10.45,19.34-10.45c2.15,0,3.98,0.11,5.43,0.26C646.06,274.99,638.05,280.26,631.53,280.26z"></path>
<path class="st1" d="M758.47,248.26h-0.07l0.07-0.03c0-10.28-0.13-16.84-0.23-18.92c-3.99-0.29-7.9-0.15-12.18,0.38
	c0.14,2.44,0.32,9.15,0.32,18.54l0.05,0.03h-0.05v6.13c-3.69,1.84-9.41,3.78-15.61,3.78c-7.7,0-11.12-3-11.12-9.23V228
	c-4.18,1.16-8.52,1.77-12.09,3.41v18.81c0,15.59,8.55,19,18.43,19c8.23,0,15.78-2.35,20.39-4.44v5.84c0,12.43,0.2,18.27,0.35,19.21
	c4.25,0.1,8.36-0.23,12.37-0.85c-0.27-1.57-0.63-7.62-0.63-18.35V248.26z"></path>
<path class="st1" d="M800.4,273.12l-17.05-44.62c-4.37,0.63-8.75,1.08-13.22,1.39l22.01,55.36c1.64,0.04,3.25,0.01,4.85-0.08
	c-7.01,14.89-12.83,18.89-18.75,18.89c-2.36,0-4.41-0.62-5.41-1.09c-0.32,3.9,0.06,7.8,1.57,11.7c1.18,0.48,3.65,1.11,6.47,1.11
	c9.88,0,17.53-7.83,26.31-30.25l21.93-56.04c-3.92-0.12-7.84-0.39-11.75-0.82L800.4,273.12z"></path>
<path class="st1" d="M886.1,248.23c0-9.97-0.12-16.46-0.23-18.73h-42.63v2.51c0,29.76-1.05,42.32-4.79,46.3h-8.11v6.05v24.31
	c3.88,0.45,7.51,0.54,11.06,0.22v-19.53h43.6v19.53c3.56,0.33,7.18,0.23,11.06-0.22v-24.31v-6.05h-9.97V248.23z M874.03,278.32
	h-22.95c2.21-7.76,3.09-19.52,3.17-36.38l0.01-1.79h19.77V278.32z"></path>
<path class="st1" d="M955,250.83c0-13.88-7.44-22.83-21.68-22.83c-17.22,0-29.84,13.32-29.84,32.1c0,18.59,11.89,30.76,28.71,30.76
	c9.49,0,17.43-4.01,20.81-7.04c0.77-4,1.33-7.62,0.88-10.66c-3.13,2.78-10.03,6.46-18.11,6.46c-10.97,0-18.72-6.68-19.99-17.36
	l37.69-0.52C954.16,259.76,955,255.44,955,250.83z M942.46,252.46l-26.28,0.9c1.77-8.36,7.47-15,16.35-15
	c6.64,0,10.39,3.7,10.39,10.02C942.92,249.62,942.77,251.01,942.46,252.46z"></path>
<path class="st1" d="M1012.96,273.72c-2.8,2.52-9.45,5.83-16.94,5.83c-10.95,0-19.25-7.25-19.25-19.9
	c0-11.71,6.71-20.34,17.66-20.34c7.12,0,12.87,3.57,15.22,6.27c1.9-4.69,2.9-9.19,2.8-13.22c-2.71-1.87-9.11-4.35-16.87-4.35
	c-18.21,0-31.15,13.45-31.15,32.7c0,18.23,11.58,30.16,28.17,30.16c9.17,0,16.06-3.67,19.29-6.45
	C1012.73,280.4,1013.35,276.77,1012.96,273.72z"></path>
<path class="st1" d="M481.84,256.14c0-16.27-8.62-28.14-21.62-28.14l-2.33,11.36c7.08,0.52,11.6,8.1,11.6,18.16
	c0,13.13-7.98,22.27-19.9,22.29l-2.27,11.05c0.03,0,0.06,0,0.09,0C468.11,290.86,481.84,276.38,481.84,256.14z"></path>
<polygon class="st1" points="416.95,279.81 449.6,279.81 447.33,290.86 414.69,290.86 414.17,283.47 "></polygon>
</svg>