<svg fill="none" height="55" viewBox="0 0 161 55" width="161" xmlns="http://www.w3.org/2000/svg" xmlns:xlink="http://www.w3.org/1999/xlink"><linearGradient id="a" gradientUnits="userSpaceOnUse" x1="54" x2="74" y1="21.1538" y2="21.1538"><stop offset="0" stop-color="#dd0b2f"/><stop offset="1" stop-color="#f59c00"/></linearGradient><path d="m0 0h54v40h-54z" fill="#dd0b2f"/><path d="m74 15h87v40h-87z" fill="#f59c00"/><path d="m54 0c10.2157 0 9.0017 15 20 15v40c-12.289 0-11.1802-15-20-15z" fill="url(#a)"/><g fill="#fff"><path d="m16.24 18.52h-1.82v-3.62h5.26v-1.9h-7.28v14h3.84c2.68 0 4.2-1.46 4.2-4.26 0-2.56-1.52-4.22-4.2-4.22zm-.12 6.56h-1.7v-4.68h1.7c1.36 0 2.26.78 2.26 2.34 0 1.58-.9 2.34-2.26 2.34zm8.3391.02v-4.28h4.46v-1.86h-4.46v-4.06h4.84v-1.9h-6.86v14h7.06v-1.9zm13.8987-12.1h-6.7v14h2.02v-12.08h4.68zm6.9166 0-2.02 6.82-2.28-6.82h-2.14l3.52 9.9-.16.52c-.42 1.4-.88 1.96-1.96 1.96h-.56v1.82h.5c2.12 0 3.1-.82 3.82-3.14l3.4-11.06z"/><path d="m82.7 34.74c1.5-.56 2.06-1.54 2.06-3.02 0-2.5-1.58-4-3.98-4-2.6 0-3.98 1.74-4.12 4.3h2c.08-1.4.66-2.36 2.12-2.36 1.24 0 1.94.76 1.94 2.04 0 1.52-.86 2.2-2.32 2.2h-.88v1.8h1.06c1.48 0 2.5.8 2.5 2.32 0 1.46-.98 2.3-2.3 2.3-1.5 0-2.24-1.08-2.32-2.32h-2.04c.12 2.36 1.7 4.26 4.38 4.26 2.46 0 4.32-1.54 4.32-4.14 0-1.62-.62-2.88-2.42-3.38zm9.935 7.26h2.1l-3.52-14h-2.18l-3.52 14h2.12l.64-2.82h3.7zm-3.92-4.7.86-3.76c.22-.92.42-2.26.52-3h.06c.1.74.32 2.08.52 3l.88 3.76zm17.229-9.3v6.98c-.56.22-1.12.3-1.68.3-1.48 0-2.32-.8-2.32-2.5v-4.78h-2.0204v4.72c0 2.84 1.5804 4.46 4.1204 4.46.6 0 1.3-.1 1.9-.32v5.18h2.02v-14.04zm9.955 0-2.02 6.82-2.28-6.82h-2.14l3.52 9.9-.16.52c-.42 1.4-.88 1.96-1.96 1.96h-.56v1.82h.5c2.12 0 3.1-.82 3.82-3.14l3.4-11.06zm10.636 12.1v-12.1h-6.74l-.24 6.76c-.08 2.2-.56 4.3-1.58 5.34h-.82v4.24h1.98v-2.34h6.66v2.34h1.98v-4.24zm-2 0h-4.14c.66-1.18 1.02-2.8 1.1-4.78l.2-5.42h2.84zm8.893 2.16c2.68 0 4.28-1.78 4.28-4.7v-5.12c0-2.92-1.6-4.7-4.28-4.7s-4.28 1.78-4.28 4.7v5.12c0 2.92 1.6 4.7 4.28 4.7zm0-1.98c-1.46 0-2.2-.96-2.2-2.72v-5.12c0-1.76.74-2.72 2.2-2.72 1.44 0 2.2.96 2.2 2.72v5.12c0 1.76-.76 2.72-2.2 2.72zm15.587-12.28-2.36 5.68c-.32.8-.8 2.14-1.02 2.78h-.08c-.22-.64-.7-1.98-1.02-2.78l-2.36-5.68h-2.06v14h1.98v-5.46c-.04-1.6-.1-3.06-.16-4.52l.08-.04c.4 1.12.88 2.4 1.36 3.68l1.22 3.18h2l1.22-3.18c.48-1.28.96-2.56 1.36-3.68l.08.04c-.08 1.46-.12 2.92-.16 4.52v5.46h1.98v-14z"/></g></svg>