<svg width="161" height="55" viewBox="0 0 161 55" fill="none" xmlns="http://www.w3.org/2000/svg">
<rect width="54" height="40" fill="#DD0B2F"/>
<rect x="74" y="15" width="87" height="40" fill="#F59C00"/>
<path d="M53.8032 0C64.0001 0 62.7883 15 73.7663 15C84.7444 15 86.0327 55 73.7663 55C61.5 55 62.6067 40 53.8032 40C44.9996 40 43.6063 0 53.8032 0Z" fill="url(#paint0_linear)"/>
<path d="M16.24 18.52H14.42V14.9H19.68V13H12.4V27H16.24C18.92 27 20.44 25.54 20.44 22.74C20.44 20.18 18.92 18.52 16.24 18.52ZM16.12 25.08H14.42V20.4H16.12C17.48 20.4 18.38 21.18 18.38 22.74C18.38 24.32 17.48 25.08 16.12 25.08ZM24.4591 25.1V20.82H28.9191V18.96H24.4591V14.9H29.2991V13H22.4391V27H29.4991V25.1H24.4591ZM38.3578 13H31.6578V27H33.6778V14.92H38.3578V13ZM45.2744 13L43.2544 19.82L40.9744 13H38.8344L42.3544 22.9L42.1944 23.42C41.7744 24.82 41.3144 25.38 40.2344 25.38H39.6744V27.2H40.1744C42.2944 27.2 43.2744 26.38 43.9944 24.06L47.3944 13H45.2744Z" fill="white"/>
<path d="M82.7 34.74C84.2 34.18 84.76 33.2 84.76 31.72C84.76 29.22 83.18 27.72 80.78 27.72C78.18 27.72 76.8 29.46 76.66 32.02H78.66C78.74 30.62 79.32 29.66 80.78 29.66C82.02 29.66 82.72 30.42 82.72 31.7C82.72 33.22 81.86 33.9 80.4 33.9H79.52V35.7H80.58C82.06 35.7 83.08 36.5 83.08 38.02C83.08 39.48 82.1 40.32 80.78 40.32C79.28 40.32 78.54 39.24 78.46 38H76.42C76.54 40.36 78.12 42.26 80.8 42.26C83.26 42.26 85.12 40.72 85.12 38.12C85.12 36.5 84.5 35.24 82.7 34.74ZM92.635 42H94.735L91.215 28H89.035L85.515 42H87.635L88.275 39.18H91.975L92.635 42ZM88.715 37.3L89.575 33.54C89.795 32.62 89.995 31.28 90.095 30.54H90.155C90.255 31.28 90.475 32.62 90.675 33.54L91.555 37.3H88.715ZM105.944 28V34.98C105.384 35.2 104.824 35.28 104.264 35.28C102.784 35.28 101.944 34.48 101.944 32.78V28H99.9236V32.72C99.9236 35.56 101.504 37.18 104.044 37.18C104.644 37.18 105.344 37.08 105.944 36.86V42.04H107.964V28H105.944ZM115.899 28L113.879 34.82L111.599 28H109.459L112.979 37.9L112.819 38.42C112.399 39.82 111.939 40.38 110.859 40.38H110.299V42.2H110.799C112.919 42.2 113.899 41.38 114.619 39.06L118.019 28H115.899ZM126.535 40.1V28H119.795L119.555 34.76C119.475 36.96 118.995 39.06 117.975 40.1H117.155V44.34H119.135V42H125.795V44.34H127.775V40.1H126.535ZM124.535 40.1H120.395C121.055 38.92 121.415 37.3 121.495 35.32L121.695 29.9H124.535V40.1ZM133.428 42.26C136.108 42.26 137.708 40.48 137.708 37.56V32.44C137.708 29.52 136.108 27.74 133.428 27.74C130.748 27.74 129.148 29.52 129.148 32.44V37.56C129.148 40.48 130.748 42.26 133.428 42.26ZM133.428 40.28C131.968 40.28 131.228 39.32 131.228 37.56V32.44C131.228 30.68 131.968 29.72 133.428 29.72C134.868 29.72 135.628 30.68 135.628 32.44V37.56C135.628 39.32 134.868 40.28 133.428 40.28ZM149.015 28L146.655 33.68C146.335 34.48 145.855 35.82 145.635 36.46H145.555C145.335 35.82 144.855 34.48 144.535 33.68L142.175 28H140.115V42H142.095V36.54C142.055 34.94 141.995 33.48 141.935 32.02L142.015 31.98C142.415 33.1 142.895 34.38 143.375 35.66L144.595 38.84H146.595L147.815 35.66C148.295 34.38 148.775 33.1 149.175 31.98L149.255 32.02C149.175 33.48 149.135 34.94 149.095 36.54V42H151.075V28H149.015Z" fill="white"/>
<defs>
<linearGradient id="paint0_linear" x1="51.3059" y1="21.1538" x2="75.7608" y2="21.1538" gradientUnits="userSpaceOnUse">
<stop stop-color="#DD0B2F"/>
<stop offset="1" stop-color="#F59C00"/>
</linearGradient>
</defs>
</svg>
