<svg width="18" height="28" viewBox="0 0 18 28" fill="none" xmlns="http://www.w3.org/2000/svg">
<path fill-rule="evenodd" clip-rule="evenodd" d="M9 0C4.03772 0 0 4.03772 0 9V19C0 23.9623 4.03772 28 9 28C13.9623 28 18 23.9623 18 19V9C18 4.03772 13.9623 0 9 0ZM2 9C2 5.14228 5.14228 2 9 2C12.8577 2 16 5.14228 16 9V19C16 22.8577 12.8577 26 9 26C5.14228 26 2 22.8577 2 19V9ZM10 7C10 6.44772 9.55229 6 9 6C8.44771 6 8 6.44772 8 7V11C8 11.5523 8.44771 12 9 12C9.55229 12 10 11.5523 10 11V7Z" fill="#1F1F1F"/>
</svg>
