<svg width="17" height="17" viewBox="0 0 17 17" fill="none" xmlns="http://www.w3.org/2000/svg">
<path fill-rule="evenodd" clip-rule="evenodd" d="M10.597 6.29851C10.597 8.67251 8.67251 10.597 6.29851 10.597C3.92451 10.597 2 8.67251 2 6.29851C2 3.92451 3.92451 2 6.29851 2C8.67251 2 10.597 3.92451 10.597 6.29851ZM9.98886 11.4032C8.95179 12.1543 7.67686 12.597 6.29851 12.597C2.81994 12.597 0 9.77708 0 6.29851C0 2.81994 2.81994 0 6.29851 0C9.77708 0 12.597 2.81994 12.597 6.29851C12.597 7.67694 12.1542 8.95195 11.4031 9.98906L16.0033 14.5893L14.5891 16.0035L9.98886 11.4032Z" fill="#1F1F1F"/>
</svg>
