<svg width="56" height="56" viewBox="0 0 56 56" fill="none" xmlns="http://www.w3.org/2000/svg">
<circle cx="28" cy="28" r="28" fill="#EBEDEF"/>
<path fill-rule="evenodd" clip-rule="evenodd" d="M32 26C32 28.2091 30.2091 30 28 30C25.7909 30 24 28.2091 24 26C24 23.7909 25.7909 22 28 22C30.2091 22 32 23.7909 32 26ZM31.7543 30.6806C33.1235 29.5809 34 27.8928 34 26C34 22.6863 31.3137 20 28 20C24.6863 20 22 22.6863 22 26C22 27.8928 22.8765 29.5809 24.2457 30.6806C22.7034 31.26 21.3451 32.1782 20.273 33.3134C19.8938 33.7149 19.9119 34.3478 20.3134 34.727C20.7149 35.1062 21.3478 35.0881 21.727 34.6866C23.2475 33.0767 25.4885 32 28 32C30.5115 32 32.7525 33.0767 34.273 34.6866C34.6522 35.0881 35.2851 35.1062 35.6866 34.727C36.0881 34.3478 36.1062 33.7149 35.727 33.3134C34.6549 32.1782 33.2966 31.26 31.7543 30.6806Z" fill="#79838C"/>
</svg>
