<svg width="92" height="92" viewBox="0 0 92 92" fill="none" xmlns="http://www.w3.org/2000/svg">
<path d="M90.0004 32.6086C90.0004 41.5999 87.896 50.5912 83.8787 59.0086" stroke="url(#paint0_linear)" stroke-width="3" stroke-miterlimit="10" stroke-linecap="round" stroke-linejoin="round"/>
<path d="M90.0001 32.6087V19.2174C90.0001 17.1131 88.2783 15.3914 86.174 15.3914C84.0696 15.3914 82.3479 17.1131 82.3479 19.2174V24.9566" stroke="url(#paint1_linear)" stroke-width="3" stroke-miterlimit="10" stroke-linecap="round" stroke-linejoin="round"/>
<path d="M82.348 24.9565V9.65214C82.348 7.54779 80.6262 5.82605 78.5219 5.82605C76.4175 5.82605 74.6958 7.54779 74.6958 9.65214V24.9565" stroke="url(#paint2_linear)" stroke-width="3" stroke-miterlimit="10" stroke-linecap="round" stroke-linejoin="round"/>
<path d="M74.6959 24.9565V5.82609C74.6959 3.72174 72.9741 2 70.8698 2C68.7654 2 67.0437 3.72174 67.0437 5.82609V24.9565" stroke="url(#paint3_linear)" stroke-width="3" stroke-miterlimit="10" stroke-linecap="round" stroke-linejoin="round"/>
<path d="M67.0435 24.9565V9.65214C67.0435 7.54779 65.3218 5.82605 63.2174 5.82605C61.1131 5.82605 59.3914 7.54779 59.3914 9.65214V24.9565" stroke="url(#paint4_linear)" stroke-width="3" stroke-miterlimit="10" stroke-linecap="round" stroke-linejoin="round"/>
<path d="M59.3914 32.6088V24.9566C59.3914 22.8522 57.6697 21.1305 55.5653 21.1305C53.461 21.1305 51.7393 22.8522 51.7393 24.9566V34.1392C51.7393 36.8174 52.6958 39.4957 54.4175 41.6001L62.6436 51.1653" stroke="url(#paint5_linear)" stroke-width="3" stroke-miterlimit="10" stroke-linecap="round" stroke-linejoin="round"/>
<path d="M2 59.1999C2 50.2086 4.10435 41.026 8.12174 32.7999" stroke="url(#paint6_linear)" stroke-width="3" stroke-miterlimit="10" stroke-linecap="round" stroke-linejoin="round"/>
<path d="M2 59.2V72.5913C2 74.6956 3.72174 76.4173 5.82609 76.4173C7.93043 76.4173 9.65217 74.6956 9.65217 72.5913V66.8521" stroke="url(#paint7_linear)" stroke-width="3" stroke-miterlimit="10" stroke-linecap="round" stroke-linejoin="round"/>
<path d="M9.6521 66.8522V82.1565C9.6521 84.2609 11.3738 85.9826 13.4782 85.9826C15.5825 85.9826 17.3043 84.2609 17.3043 82.1565V66.8522" stroke="url(#paint8_linear)" stroke-width="3" stroke-miterlimit="10" stroke-linecap="round" stroke-linejoin="round"/>
<path d="M17.3044 66.8522V85.9826C17.3044 88.087 19.0262 89.8087 21.1305 89.8087C23.2349 89.8087 24.9566 88.087 24.9566 85.9826V66.8522" stroke="url(#paint9_linear)" stroke-width="3" stroke-miterlimit="10" stroke-linecap="round" stroke-linejoin="round"/>
<path d="M24.9565 66.8522V82.1565C24.9565 84.2609 26.6783 85.9826 28.7826 85.9826C30.887 85.9826 32.6087 84.2609 32.6087 82.1565V66.8522" stroke="url(#paint10_linear)" stroke-width="3" stroke-miterlimit="10" stroke-linecap="round" stroke-linejoin="round"/>
<path d="M32.6089 59.1998V66.852C32.6089 68.9564 34.3306 70.6781 36.4349 70.6781C38.5393 70.6781 40.261 68.9564 40.261 66.852V57.6694C40.261 54.9911 39.3045 52.3129 37.5828 50.2085L29.3567 40.6433" stroke="url(#paint11_linear)" stroke-width="3" stroke-miterlimit="10" stroke-linecap="round" stroke-linejoin="round"/>
<path d="M32.8 2C41.9827 2 50.974 4.10435 59.3914 8.31304" stroke="url(#paint12_linear)" stroke-width="3" stroke-miterlimit="10" stroke-linecap="round" stroke-linejoin="round"/>
<path d="M32.8002 2H19.4089C17.3045 2 15.5828 3.72174 15.5828 5.82609C15.5828 7.93043 17.3045 9.65217 19.4089 9.65217H25.148" stroke="url(#paint13_linear)" stroke-width="3" stroke-miterlimit="10" stroke-linecap="round" stroke-linejoin="round"/>
<path d="M25.1478 9.65222H9.84342C7.73907 9.65222 6.01733 11.374 6.01733 13.4783C6.01733 15.5827 7.73907 17.3044 9.84342 17.3044H25.1478" stroke="url(#paint14_linear)" stroke-width="3" stroke-miterlimit="10" stroke-linecap="round" stroke-linejoin="round"/>
<path d="M25.1479 17.3043H6.01749C3.91315 17.3043 2.19141 19.0261 2.19141 21.1304C2.19141 23.2348 3.91315 24.9565 6.01749 24.9565H25.1479" stroke="url(#paint15_linear)" stroke-width="3" stroke-miterlimit="10" stroke-linecap="round" stroke-linejoin="round"/>
<path d="M25.1478 24.9565H9.84342C7.73907 24.9565 6.01733 26.6783 6.01733 28.7826C6.01733 30.887 7.73907 32.6087 9.84342 32.6087H25.1478" stroke="url(#paint16_linear)" stroke-width="3" stroke-miterlimit="10" stroke-linecap="round" stroke-linejoin="round"/>
<path d="M32.8 32.6087H25.1479C23.0435 32.6087 21.3218 34.3305 21.3218 36.4348C21.3218 38.5392 23.0435 40.2609 25.1479 40.2609H34.3305C37.0087 40.2609 39.687 39.3044 41.7913 37.5827L51.3566 29.3566" stroke="url(#paint17_linear)" stroke-width="3" stroke-miterlimit="10" stroke-linecap="round" stroke-linejoin="round"/>
<path d="M59.2001 89.9999C50.0175 89.9999 40.8349 87.8956 32.4175 83.6869" stroke="url(#paint18_linear)" stroke-width="3" stroke-miterlimit="10" stroke-linecap="round" stroke-linejoin="round"/>
<path d="M59.3914 90H72.7827C74.887 90 76.6087 88.2782 76.6087 86.1739C76.6087 84.0695 74.887 82.3478 72.7827 82.3478H67.0435" stroke="url(#paint19_linear)" stroke-width="3" stroke-miterlimit="10" stroke-linecap="round" stroke-linejoin="round"/>
<path d="M67.0437 82.3479H82.348C84.4524 82.3479 86.1741 80.6261 86.1741 78.5218C86.1741 76.4174 84.4524 74.6957 82.348 74.6957H67.0437" stroke="url(#paint20_linear)" stroke-width="3" stroke-miterlimit="10" stroke-linecap="round" stroke-linejoin="round"/>
<path d="M67.0437 74.6956H86.1741C88.2785 74.6956 90.0002 72.9739 90.0002 70.8695C90.0002 68.7652 88.2785 67.0435 86.1741 67.0435H67.0437" stroke="url(#paint21_linear)" stroke-width="3" stroke-miterlimit="10" stroke-linecap="round" stroke-linejoin="round"/>
<path d="M67.0437 67.0435H82.348C84.4524 67.0435 86.1741 65.3218 86.1741 63.2174C86.1741 61.1131 84.4524 59.3914 82.348 59.3914H67.0437" stroke="url(#paint22_linear)" stroke-width="3" stroke-miterlimit="10" stroke-linecap="round" stroke-linejoin="round"/>
<path d="M59.3912 59.3913H67.0434C69.1478 59.3913 70.8695 57.6696 70.8695 55.5652C70.8695 53.4609 69.1478 51.7391 67.0434 51.7391H57.8608C55.1825 51.7391 52.5043 52.6957 50.3999 54.4174L40.8347 62.6435" stroke="url(#paint23_linear)" stroke-width="3" stroke-miterlimit="10" stroke-linecap="round" stroke-linejoin="round"/>
<defs>
<linearGradient id="paint0_linear" x1="89.9162" y1="33.2494" x2="82.245" y2="33.7455" gradientUnits="userSpaceOnUse">
<stop stop-color="#F26D7D"/>
<stop offset="1" stop-color="#F59C00"/>
</linearGradient>
<linearGradient id="paint1_linear" x1="89.8949" y1="15.8093" x2="80.4114" y2="16.9847" gradientUnits="userSpaceOnUse">
<stop stop-color="#F26D7D"/>
<stop offset="1" stop-color="#F59C00"/>
</linearGradient>
<linearGradient id="paint2_linear" x1="82.2428" y1="6.29038" x2="72.7319" y2="7.35132" gradientUnits="userSpaceOnUse">
<stop stop-color="#F26D7D"/>
<stop offset="1" stop-color="#F59C00"/>
</linearGradient>
<linearGradient id="paint3_linear" x1="74.5907" y1="2.5572" x2="65.044" y2="3.44464" gradientUnits="userSpaceOnUse">
<stop stop-color="#F26D7D"/>
<stop offset="1" stop-color="#F59C00"/>
</linearGradient>
<linearGradient id="paint4_linear" x1="66.9383" y1="6.29038" x2="57.4275" y2="7.35132" gradientUnits="userSpaceOnUse">
<stop stop-color="#F26D7D"/>
<stop offset="1" stop-color="#F59C00"/>
</linearGradient>
<linearGradient id="paint5_linear" x1="62.4937" y1="21.8595" x2="48.9113" y2="23.2347" gradientUnits="userSpaceOnUse">
<stop stop-color="#F26D7D"/>
<stop offset="1" stop-color="#F59C00"/>
</linearGradient>
<linearGradient id="paint6_linear" x1="8.03759" y1="33.4407" x2="0.366311" y2="33.9368" gradientUnits="userSpaceOnUse">
<stop stop-color="#F26D7D"/>
<stop offset="1" stop-color="#F59C00"/>
</linearGradient>
<linearGradient id="paint7_linear" x1="9.54699" y1="59.6178" x2="0.0634781" y2="60.7933" gradientUnits="userSpaceOnUse">
<stop stop-color="#F26D7D"/>
<stop offset="1" stop-color="#F59C00"/>
</linearGradient>
<linearGradient id="paint8_linear" x1="17.1991" y1="67.3165" x2="7.68824" y2="68.3774" gradientUnits="userSpaceOnUse">
<stop stop-color="#F26D7D"/>
<stop offset="1" stop-color="#F59C00"/>
</linearGradient>
<linearGradient id="paint9_linear" x1="24.8514" y1="67.4094" x2="15.3047" y2="68.2968" gradientUnits="userSpaceOnUse">
<stop stop-color="#F26D7D"/>
<stop offset="1" stop-color="#F59C00"/>
</linearGradient>
<linearGradient id="paint10_linear" x1="32.5035" y1="67.3165" x2="22.9927" y2="68.3774" gradientUnits="userSpaceOnUse">
<stop stop-color="#F26D7D"/>
<stop offset="1" stop-color="#F59C00"/>
</linearGradient>
<linearGradient id="paint11_linear" x1="40.1111" y1="41.3723" x2="26.5288" y2="42.7475" gradientUnits="userSpaceOnUse">
<stop stop-color="#F26D7D"/>
<stop offset="1" stop-color="#F59C00"/>
</linearGradient>
<linearGradient id="paint12_linear" x1="59.0258" y1="2.15323" x2="44.9654" y2="18.6695" gradientUnits="userSpaceOnUse">
<stop stop-color="#F26D7D"/>
<stop offset="1" stop-color="#F59C00"/>
</linearGradient>
<linearGradient id="paint13_linear" x1="32.5635" y1="2.18573" x2="17.0183" y2="11.9399" gradientUnits="userSpaceOnUse">
<stop stop-color="#F26D7D"/>
<stop offset="1" stop-color="#F59C00"/>
</linearGradient>
<linearGradient id="paint14_linear" x1="24.8848" y1="9.83795" x2="8.68574" y2="21.1318" gradientUnits="userSpaceOnUse">
<stop stop-color="#F26D7D"/>
<stop offset="1" stop-color="#F59C00"/>
</linearGradient>
<linearGradient id="paint15_linear" x1="24.8324" y1="17.4901" x2="7.83913" y2="31.7071" gradientUnits="userSpaceOnUse">
<stop stop-color="#F26D7D"/>
<stop offset="1" stop-color="#F59C00"/>
</linearGradient>
<linearGradient id="paint16_linear" x1="24.8848" y1="25.1423" x2="8.68574" y2="36.4361" gradientUnits="userSpaceOnUse">
<stop stop-color="#F26D7D"/>
<stop offset="1" stop-color="#F59C00"/>
</linearGradient>
<linearGradient id="paint17_linear" x1="50.9437" y1="29.6212" x2="27.1739" y2="47.8796" gradientUnits="userSpaceOnUse">
<stop stop-color="#F26D7D"/>
<stop offset="1" stop-color="#F59C00"/>
</linearGradient>
<linearGradient id="paint18_linear" x1="58.8319" y1="83.8401" x2="44.7879" y2="100.456" gradientUnits="userSpaceOnUse">
<stop stop-color="#F26D7D"/>
<stop offset="1" stop-color="#F59C00"/>
</linearGradient>
<linearGradient id="paint19_linear" x1="76.3721" y1="82.5335" x2="60.8268" y2="92.2877" gradientUnits="userSpaceOnUse">
<stop stop-color="#F26D7D"/>
<stop offset="1" stop-color="#F59C00"/>
</linearGradient>
<linearGradient id="paint20_linear" x1="85.9112" y1="74.8814" x2="69.7121" y2="86.1752" gradientUnits="userSpaceOnUse">
<stop stop-color="#F26D7D"/>
<stop offset="1" stop-color="#F59C00"/>
</linearGradient>
<linearGradient id="paint21_linear" x1="89.6847" y1="67.2292" x2="72.6914" y2="81.4462" gradientUnits="userSpaceOnUse">
<stop stop-color="#F26D7D"/>
<stop offset="1" stop-color="#F59C00"/>
</linearGradient>
<linearGradient id="paint22_linear" x1="85.9112" y1="59.5771" x2="69.7121" y2="70.8709" gradientUnits="userSpaceOnUse">
<stop stop-color="#F26D7D"/>
<stop offset="1" stop-color="#F59C00"/>
</linearGradient>
<linearGradient id="paint23_linear" x1="70.4566" y1="52.0038" x2="46.6868" y2="70.2621" gradientUnits="userSpaceOnUse">
<stop stop-color="#F26D7D"/>
<stop offset="1" stop-color="#F59C00"/>
</linearGradient>
</defs>
</svg>
