<svg width="20" height="16" viewBox="0 0 20 16" fill="none" xmlns="http://www.w3.org/2000/svg">
<g clip-path="url(#clip0)">
<path d="M20 0.0156879H0V15.9847H20V0.0156879Z" fill="#F0F0F0"/>
<path d="M11.25 0.015543H8.75V6.50284H0V9.49699H8.75V15.9843H11.25V9.49699H20V6.50284H11.25V0.015543Z" fill="#D80027"/>
<path d="M15.3821 10.777L19.9999 13.8495V10.777H15.3821Z" fill="#0052B4"/>
<path d="M12.1738 10.777L19.9999 15.9842V14.5117L14.3869 10.777H12.1738Z" fill="#0052B4"/>
<path d="M17.9153 15.9842L12.1738 12.1637V15.9842H17.9153Z" fill="#0052B4"/>
<path d="M12.1738 10.777L19.9999 15.9842V14.5117L14.3869 10.777H12.1738Z" fill="#F0F0F0"/>
<path d="M12.1738 10.777L19.9999 15.9842V14.5117L14.3869 10.777H12.1738Z" fill="#D80027"/>
<path d="M3.52895 10.7769L0 13.125V10.7769H3.52895Z" fill="#0052B4"/>
<path d="M7.8262 11.4391V15.9841H0.99585L7.8262 11.4391Z" fill="#0052B4"/>
<path d="M5.61301 10.777L0 14.5117V15.9842L7.82609 10.777H5.61301Z" fill="#D80027"/>
<path d="M4.61777 5.22265L0 2.15009V5.22265H4.61777Z" fill="#0052B4"/>
<path d="M7.82609 5.22362L0 0.0164108V1.48888L5.61301 5.22362H7.82609Z" fill="#0052B4"/>
<path d="M2.08472 0.0154457L7.8262 3.83598V0.0154457H2.08472Z" fill="#0052B4"/>
<path d="M7.82609 5.22275L0 0.015543V1.48801L5.61301 5.22275H7.82609Z" fill="#F0F0F0"/>
<path d="M7.82609 5.22275L0 0.015543V1.48801L5.61301 5.22275H7.82609Z" fill="#D80027"/>
<path d="M16.4709 5.22275L19.9999 2.87467V5.22275H16.4709Z" fill="#0052B4"/>
<path d="M12.1738 4.56057V0.0154915H19.0042L12.1738 4.56057Z" fill="#0052B4"/>
<path d="M14.3869 5.22265L19.9999 1.48791V0.0154457L12.1738 5.22265H14.3869Z" fill="#D80027"/>
</g>
<defs>
<clipPath id="clip0">
<rect width="20" height="16" fill="white"/>
</clipPath>
</defs>
</svg>
