<svg width="1600" height="725" viewBox="0 0 1600 725" fill="none" xmlns="http://www.w3.org/2000/svg">
<path opacity="0.3" fill-rule="evenodd" clip-rule="evenodd" d="M0 0L38 5.62637C76 11.2527 152 22.5055 229 45.011C305 67.5165 381 101.275 457 135.033C533 168.791 610 202.549 686 191.297C762 180.044 838 123.78 914 106.901C990 90.022 1067 112.527 1143 135.033C1219 157.538 1295 180.044 1371 174.418C1448 168.791 1524 135.033 1562 118.154L1600 101.275V720H1562C1524 720 1448 720 1371 720C1295 720 1219 720 1143 720C1067 720 990 720 914 720C838 720 762 720 686 720C610 720 533 720 457 720C381 720 305 720 229 720C152 720 76 720 38 720H0V0Z" fill="#D7DCE0"/>
<path opacity="0.3" fill-rule="evenodd" clip-rule="evenodd" d="M0 219.271L30 208.175C59 197.079 119 174.887 178 169.339C237 163.792 296 174.887 356 213.723C415 252.558 474 319.134 533 341.325C593 363.517 652 341.325 711 352.421C770 363.517 830 407.9 889 430.092C948 452.284 1007 452.284 1067 413.448C1126 374.613 1185 296.942 1244 269.202C1304 241.463 1363 263.654 1422 285.846C1481 308.038 1541 330.229 1570 341.325L1600 352.421V720H1570C1541 720 1481 720 1422 720C1363 720 1304 720 1244 720C1185 720 1126 720 1067 720C1007 720 948 720 889 720C830 720 770 720 711 720C652 720 593 720 533 720C474 720 415 720 356 720C296 720 237 720 178 720C119 720 59 720 30 720H0V219.271Z" fill="#D7DCE0"/>
<path fill-rule="evenodd" clip-rule="evenodd" d="M0 546.573L24 535.383C48 524.194 97 501.816 145 505.546C194 509.276 242 539.113 291 542.843C339 546.573 388 524.194 436 524.194C485 524.194 533 546.573 582 546.573C630 546.573 679 524.194 727 527.924C776 531.654 824 561.491 873 576.41C921 591.329 970 591.329 1018 583.87C1067 576.41 1115 561.491 1164 568.951C1212 576.41 1261 606.248 1309 595.059C1358 583.87 1406 531.654 1455 513.005C1503 494.357 1552 509.276 1576 516.735L1600 524.194V725H1576C1552 725 1503 725 1455 725C1406 725 1358 725 1309 725C1261 725 1212 725 1164 725C1115 725 1067 725 1018 725C970 725 921 725 873 725C824 725 776 725 727 725C679 725 630 725 582 725C533 725 485 725 436 725C388 725 339 725 291 725C242 725 194 725 145 725C97 725 48 725 24 725H0V546.573Z" fill="#D7DCE0"/>
</svg>
