<svg width="93" height="88" viewBox="0 0 93 88" fill="none" xmlns="http://www.w3.org/2000/svg">
<path d="M76.7264 47.6181H56.9221L56.7203 46.7404C56.5541 46.0406 56.1385 45.3962 55.5449 44.9519L53.384 43.2966C52.0304 42.2745 50.7838 41.1192 49.6558 39.886L45.1322 34.898L46.2127 33.6649C46.8419 32.9427 47.6612 32.3873 48.5754 32.0429V15.2346C48.5754 12.7683 50.7244 10.7576 53.3602 10.7576C54.785 10.7576 56.0791 11.3463 56.9578 12.2795C57.8364 11.3463 59.1187 10.7576 60.5434 10.7576C61.9563 10.7576 63.2505 11.3463 64.1409 12.2906C65.0196 11.3463 66.3137 10.7576 67.7266 10.7576C69.1395 10.7576 70.4337 11.3241 71.3241 12.2684C72.2146 11.3241 73.5088 10.7576 74.9098 10.7576C76.572 10.7576 78.1393 11.5907 79.006 12.9239C79.4572 13.6237 79.6946 14.4125 79.6946 15.2346V29.9655C79.6946 31.3763 79.5522 32.7872 79.2791 34.1759C79.0179 35.509 78.6261 36.831 78.1037 38.1086L77.2132 40.3193C76.5245 42.019 76.2752 43.8632 76.5008 45.674L76.7264 47.6181ZM58.7506 45.3962H74.0787C73.9243 43.4188 74.233 41.408 74.981 39.5416L75.8715 37.3309C76.3346 36.1867 76.6908 34.9869 76.9282 33.7759C77.1776 32.5206 77.3082 31.243 77.3082 29.9655V15.2346C77.3082 14.8235 77.1894 14.4236 76.9638 14.0792C76.5245 13.4016 75.7528 12.9905 74.9098 12.9905C73.865 12.9905 72.9508 13.6126 72.6302 14.5347C72.5471 14.768 72.5114 15.0013 72.5114 15.2346H70.1368C70.1368 15.0013 70.1012 14.7791 70.03 14.5569C69.7094 13.6237 68.7952 12.9905 67.7385 12.9905C66.4918 12.9905 65.4351 13.9015 65.3401 15.0568V15.0791C65.3401 15.1235 65.3283 15.179 65.3283 15.2346H62.9536C62.9536 15.179 62.9536 15.1235 62.9418 15.0791V15.0568C62.8468 13.9015 61.7901 12.9905 60.5434 12.9905C59.2136 12.9905 58.1332 14.0015 58.1332 15.2457H55.7586C55.7586 14.0015 54.6781 12.9905 53.3602 12.9905C52.0304 12.9905 50.95 14.0015 50.95 15.2457V33.7871L50.0002 33.9648C49.3234 34.0981 48.6941 34.4203 48.2192 34.8869L51.4605 38.4641C52.4816 39.5972 53.6333 40.6526 54.8681 41.5858L57.029 43.2299C57.8007 43.7965 58.3944 44.5519 58.7506 45.3962Z" fill="url(#paint0_linear_2047_243)"/>
<path d="M81.6064 88.0001H54.7733L55.5926 71.7028L56.9342 71.9361C58.2521 72.1694 59.6056 72.2805 60.9592 72.2805H76.7028C77.154 72.2805 77.5814 72.1694 77.9614 71.9472L79.5524 71.0251L81.6064 88.0001ZM57.2548 85.7782H78.9468L77.5696 74.4246C77.2846 74.4801 76.9878 74.5023 76.691 74.5023H60.9473C59.9025 74.5023 58.8576 74.4357 57.8247 74.3135L57.2548 85.7782Z" fill="url(#paint1_linear_2047_243)"/>
<path d="M72.4997 15.2341H70.1251V22.3218H72.4997V15.2341Z" fill="url(#paint2_linear_2047_243)"/>
<path d="M65.3165 15.2341H62.9419V22.3218H65.3165V15.2341Z" fill="url(#paint3_linear_2047_243)"/>
<path d="M58.1333 15.2341H55.7587V22.3218H58.1333V15.2341Z" fill="url(#paint4_linear_2047_243)"/>
<path d="M76.7027 74.5025H60.9472C59.4512 74.5025 57.9552 74.3692 56.4829 74.1248C55.0344 73.8804 53.6096 73.5027 52.2324 73.025L49.8696 72.1918C48.053 71.5474 46.0821 71.3141 44.1468 71.5252L42.0928 71.7474V53.5615L42.9239 53.0283L43.1257 52.9839C43.8262 52.8172 44.4674 52.4395 44.9304 51.9063L46.6876 49.8844C47.78 48.6179 49.0148 47.4514 50.3327 46.3961L55.6518 42.1745L57.0291 43.2188C57.7889 43.7965 58.3707 44.5519 58.7388 45.3851H76.6908C79.3267 45.3851 81.4757 47.3959 81.4757 49.8622C81.4757 51.1953 80.8464 52.4062 79.8491 53.2283C80.8464 54.0503 81.4757 55.2501 81.4757 56.5833C81.4757 57.9053 80.8464 59.1051 79.8491 59.9271C80.8583 60.7492 81.4757 61.949 81.4757 63.3044C81.4757 64.6264 80.8583 65.8373 79.8491 66.6705C80.8583 67.5037 81.4757 68.7146 81.4757 70.0255C81.4757 71.5919 80.6327 73.0139 79.2079 73.8359C78.4599 74.2692 77.5932 74.5025 76.7027 74.5025ZM45.5241 69.2145C47.2932 69.2145 49.0623 69.5144 50.7126 70.1032L53.0753 70.9364C54.322 71.3697 55.6043 71.7141 56.9103 71.9363C58.2282 72.1695 59.5936 72.2806 60.9353 72.2806H76.679C77.1301 72.2806 77.5576 72.1695 77.9375 71.9474C78.6499 71.5363 79.0773 70.8142 79.0773 70.0366C79.0773 69.0701 78.4243 68.2146 77.4507 67.9036C77.2014 67.8258 76.9402 67.7814 76.679 67.7814V65.5595C76.9402 65.5595 77.1895 65.5262 77.427 65.4484C78.4243 65.1485 79.0892 64.282 79.0892 63.3044C79.0892 62.149 78.1275 61.1603 76.9045 61.0603H76.8927C76.8333 61.0492 76.7621 61.0492 76.6908 61.0492V58.8273C76.7621 58.8273 76.8333 58.8273 76.8927 58.8162H76.9045C78.1275 58.7162 79.0892 57.7275 79.0892 56.5833C79.0892 55.339 78.0087 54.3281 76.679 54.3281V52.1062C78.0087 52.1062 79.0892 51.0953 79.0892 49.8622C79.0892 48.6179 78.0087 47.607 76.679 47.607H56.9222L56.7204 46.7293C56.5779 46.085 56.2098 45.4962 55.6993 45.063L51.888 48.0958C50.677 49.0512 49.549 50.1288 48.5517 51.2841L46.7945 53.306C46.189 54.0059 45.3816 54.5614 44.4911 54.9058V69.2478C44.8236 69.2256 45.1798 69.2145 45.5241 69.2145Z" fill="url(#paint5_linear_2047_243)"/>
<path d="M76.7028 65.5593H69.1278V67.7812H76.7028V65.5593Z" fill="url(#paint6_linear_2047_243)"/>
<path d="M76.7028 58.8376H69.1278V61.0595H76.7028V58.8376Z" fill="url(#paint7_linear_2047_243)"/>
<path d="M76.7028 52.1169H69.1278V54.3388H76.7028V52.1169Z" fill="url(#paint8_linear_2047_243)"/>
<path d="M14.913 72.3678L0 73.9461L0.266906 76.154L15.1799 74.5757L14.913 72.3678Z" fill="url(#paint9_linear_2047_243)"/>
<path d="M0.188868 51.2411L0.0777588 53.4605L14.9027 54.1103L15.0139 51.8909L0.188868 51.2411Z" fill="url(#paint10_linear_2047_243)"/>
<path d="M37.3317 44.7958L36.0138 43.796C35.242 43.2072 34.6484 42.4407 34.2803 41.5741H16.2927C13.6568 41.5741 11.5078 39.5634 11.5078 37.0971C11.5078 35.764 12.1371 34.5531 13.1344 33.731C12.1371 32.9089 11.5078 31.7091 11.5078 30.376C11.5078 29.0429 12.1371 27.8431 13.1463 27.0099C12.149 26.1878 11.5078 24.9769 11.5078 23.6549C11.5078 22.3329 12.1133 21.122 13.1225 20.2888C12.1133 19.4556 11.5078 18.2447 11.5078 16.9338C11.5078 15.3674 12.3983 13.8899 13.8468 13.09C14.5829 12.679 15.4259 12.4568 16.2927 12.4568H32.0363C33.5442 12.4568 35.0758 12.5901 36.5599 12.8456C37.9728 13.09 39.3857 13.4566 40.7393 13.9343L43.102 14.7675C44.9186 15.4118 46.8895 15.6451 48.8248 15.4341L50.9382 15.2119V33.7532L49.9884 33.931C49.2285 34.0754 48.528 34.4642 48.0412 35.0419L46.284 37.0638C45.1917 38.3302 43.9569 39.4967 42.6389 40.5521L37.3317 44.7958ZM16.2927 32.6312V34.853C14.9629 34.853 13.8824 35.864 13.8824 37.0971C13.8824 38.3413 14.9629 39.3523 16.2927 39.3523H35.7645L36.275 40.0522L36.3225 40.2744C36.465 40.8965 36.8093 41.463 37.2961 41.9074L41.1073 38.8857C42.3184 37.9303 43.4463 36.8527 44.4436 35.6973L46.2009 33.6755C46.8301 32.9534 47.6494 32.3979 48.5636 32.0535V17.7226C46.4264 17.8781 44.2656 17.5892 42.259 16.8783L39.8963 16.0451C38.6733 15.6118 37.3911 15.2785 36.1206 15.0563C34.779 14.823 33.4017 14.7008 32.0363 14.7008H16.2927C15.8533 14.7008 15.4378 14.8119 15.0697 15.0119C14.3336 15.4229 13.8943 16.145 13.8943 16.9449C13.8943 17.9225 14.5592 18.7891 15.5565 19.089C15.794 19.1557 16.0433 19.2001 16.2927 19.2001V21.4219C16.0552 21.4219 15.8059 21.4553 15.5803 21.5219C14.5711 21.8108 13.8824 22.6773 13.8824 23.666C13.8824 24.8436 14.856 25.8212 16.1027 25.9101H16.1264C16.1739 25.9101 16.2214 25.9212 16.2808 25.9212V28.143C16.2214 28.143 16.162 28.143 16.1146 28.1542C14.856 28.243 13.8824 29.2206 13.8824 30.3982C13.8943 31.6202 14.9747 32.6312 16.2927 32.6312Z" fill="url(#paint11_linear_2047_243)"/>
<path d="M23.8677 19.1892H16.2927V21.411H23.8677V19.1892Z" fill="url(#paint12_linear_2047_243)"/>
<path d="M23.8677 25.9099H16.2927V28.1317H23.8677V25.9099Z" fill="url(#paint13_linear_2047_243)"/>
<path d="M23.8677 32.6316H16.2927V34.8534H23.8677V32.6316Z" fill="url(#paint14_linear_2047_243)"/>
<path d="M78.1615 32.8625L78.0504 35.0819L92.8042 35.7283L92.9153 33.5089L78.1615 32.8625Z" fill="url(#paint15_linear_2047_243)"/>
<path d="M92.7331 10.8216L77.8555 12.3962L78.1224 14.6041L93 13.0295L92.7331 10.8216Z" fill="url(#paint16_linear_2047_243)"/>
<path d="M39.6945 76.2572C38.2697 76.2572 36.9756 75.6684 36.097 74.7353C35.2184 75.6684 33.9361 76.2572 32.5113 76.2572C31.0865 76.2572 29.8042 75.6684 28.9138 74.7353C28.0352 75.6684 26.741 76.2572 25.3281 76.2572C23.9271 76.2572 22.6329 75.6796 21.7424 74.7353C20.852 75.6796 19.5578 76.2572 18.1449 76.2572C16.4471 76.2572 14.8561 75.4018 14.0131 74.0243C13.5975 73.3466 13.3719 72.569 13.3719 71.7802V57.0493C13.3719 55.6273 13.5144 54.1942 13.7994 52.7945C14.0606 51.4725 14.4524 50.1616 14.9629 48.9062L15.8534 46.6844C16.5421 44.9847 16.7795 43.1294 16.5658 41.3297L16.3283 39.3523H35.7764L36.2869 40.0522L36.3344 40.2743C36.5006 40.9853 36.9162 41.6186 37.5099 42.074L39.6708 43.7182C41.0243 44.7403 42.271 45.8956 43.3989 47.1288L47.8632 52.0613L46.7827 53.3166C46.1772 54.0165 45.3698 54.572 44.4793 54.9164V71.8024C44.4793 74.2465 42.3303 76.2572 39.6945 76.2572ZM37.2961 71.7802C37.2961 73.0244 38.3766 74.0354 39.6945 74.0354C41.0243 74.0354 42.1047 73.0244 42.1047 71.7802V53.561L42.9358 53.0278L43.1377 52.9833C43.767 52.8389 44.3369 52.5168 44.7762 52.0835L41.5823 48.5619C40.5612 47.4287 39.4095 46.3733 38.1747 45.4402L36.0139 43.796C35.2421 43.2072 34.6485 42.4407 34.2804 41.5741H18.9642C19.1304 43.5738 18.8217 45.5957 18.0618 47.4731L17.1713 49.695C16.7201 50.8281 16.364 52.0168 16.1265 53.2055C15.8772 54.472 15.7466 55.7607 15.7466 57.0493V71.7802C15.7466 72.1801 15.8534 72.569 16.0671 72.9022C16.4946 73.6021 17.2901 74.0243 18.1449 74.0243C19.2016 74.0243 20.1277 73.3911 20.4483 72.4357C20.5195 72.2246 20.5551 72.0024 20.5551 71.7691H22.9298C22.9298 71.9913 22.9654 72.2024 23.0247 72.4134C23.3216 73.3577 24.2714 74.0243 25.3281 74.0243C26.5985 74.0243 27.6434 73.1022 27.7265 71.9246V71.9024C27.7265 71.8691 27.7265 71.8246 27.7265 71.7691H30.1011C30.1011 71.8135 30.1011 71.858 30.1011 71.9024V71.9246C30.1842 73.1022 31.229 74.0243 32.4994 74.0243C33.8292 74.0243 34.9097 73.0133 34.9097 71.7691H37.2961V71.7802Z" fill="url(#paint17_linear_2047_243)"/>
<path d="M22.9298 64.7038H20.5552V71.7915H22.9298V64.7038Z" fill="url(#paint18_linear_2047_243)"/>
<path d="M30.1129 64.7038H27.7383V71.7915H30.1129V64.7038Z" fill="url(#paint19_linear_2047_243)"/>
<path d="M37.2961 64.7038H34.9215V71.7915H37.2961V64.7038Z" fill="url(#paint20_linear_2047_243)"/>
<path d="M35.8508 0.0798266L35.1588 13.9067L37.5308 14.0107L38.2228 0.183757L35.8508 0.0798266Z" fill="url(#paint21_linear_2047_243)"/>
<path d="M13.9609 4.44028e-06L11.6013 0.249741L13.2854 14.1813L15.6451 13.9316L13.9609 4.44028e-06Z" fill="url(#paint22_linear_2047_243)"/>
<defs>
<linearGradient id="paint0_linear_2047_243" x1="43.6173" y1="10.7575" x2="83.1985" y2="11.4607" gradientUnits="userSpaceOnUse">
<stop stop-color="#FF9800"/>
<stop offset="1" stop-color="#FF5D67"/>
</linearGradient>
<linearGradient id="paint1_linear_2047_243" x1="53.5972" y1="71.0251" x2="84.3088" y2="71.945" gradientUnits="userSpaceOnUse">
<stop stop-color="#FF9800"/>
<stop offset="1" stop-color="#FF5D67"/>
</linearGradient>
<linearGradient id="paint2_linear_2047_243" x1="70.021" y1="15.2341" x2="72.7412" y2="15.2514" gradientUnits="userSpaceOnUse">
<stop stop-color="#FF9800"/>
<stop offset="1" stop-color="#FF5D67"/>
</linearGradient>
<linearGradient id="paint3_linear_2047_243" x1="62.8378" y1="15.2341" x2="65.558" y2="15.2514" gradientUnits="userSpaceOnUse">
<stop stop-color="#FF9800"/>
<stop offset="1" stop-color="#FF5D67"/>
</linearGradient>
<linearGradient id="paint4_linear_2047_243" x1="55.6546" y1="15.2341" x2="58.3748" y2="15.2514" gradientUnits="userSpaceOnUse">
<stop stop-color="#FF9800"/>
<stop offset="1" stop-color="#FF5D67"/>
</linearGradient>
<linearGradient id="paint5_linear_2047_243" x1="40.3666" y1="42.1745" x2="85.4584" y2="43.2153" gradientUnits="userSpaceOnUse">
<stop stop-color="#FF9800"/>
<stop offset="1" stop-color="#FF5D67"/>
</linearGradient>
<linearGradient id="paint6_linear_2047_243" x1="68.7958" y1="65.5593" x2="77.4374" y2="66.1175" gradientUnits="userSpaceOnUse">
<stop stop-color="#FF9800"/>
<stop offset="1" stop-color="#FF5D67"/>
</linearGradient>
<linearGradient id="paint7_linear_2047_243" x1="68.7958" y1="58.8376" x2="77.4374" y2="59.3959" gradientUnits="userSpaceOnUse">
<stop stop-color="#FF9800"/>
<stop offset="1" stop-color="#FF5D67"/>
</linearGradient>
<linearGradient id="paint8_linear_2047_243" x1="68.7958" y1="52.1169" x2="77.4374" y2="52.6752" gradientUnits="userSpaceOnUse">
<stop stop-color="#FF9800"/>
<stop offset="1" stop-color="#FF5D67"/>
</linearGradient>
<linearGradient id="paint9_linear_2047_243" x1="-0.653654" y1="74.0153" x2="16.4167" y2="74.1347" gradientUnits="userSpaceOnUse">
<stop stop-color="#FF9800"/>
<stop offset="1" stop-color="#FF5D67"/>
</linearGradient>
<linearGradient id="paint10_linear_2047_243" x1="0.0728844" y1="53.5578" x2="0.191566" y2="51.0149" gradientUnits="userSpaceOnUse">
<stop stop-color="#FF9800"/>
<stop offset="1" stop-color="#FF5D67"/>
</linearGradient>
<linearGradient id="paint11_linear_2047_243" x1="9.77953" y1="12.4568" x2="54.9257" y2="13.4997" gradientUnits="userSpaceOnUse">
<stop stop-color="#FF9800"/>
<stop offset="1" stop-color="#FF5D67"/>
</linearGradient>
<linearGradient id="paint12_linear_2047_243" x1="15.9607" y1="19.1892" x2="24.6023" y2="19.7474" gradientUnits="userSpaceOnUse">
<stop stop-color="#FF9800"/>
<stop offset="1" stop-color="#FF5D67"/>
</linearGradient>
<linearGradient id="paint13_linear_2047_243" x1="15.9607" y1="25.9099" x2="24.6023" y2="26.4681" gradientUnits="userSpaceOnUse">
<stop stop-color="#FF9800"/>
<stop offset="1" stop-color="#FF5D67"/>
</linearGradient>
<linearGradient id="paint14_linear_2047_243" x1="15.9607" y1="32.6316" x2="24.6023" y2="33.1898" gradientUnits="userSpaceOnUse">
<stop stop-color="#FF9800"/>
<stop offset="1" stop-color="#FF5D67"/>
</linearGradient>
<linearGradient id="paint15_linear_2047_243" x1="78.0455" y1="35.1792" x2="78.1642" y2="32.6363" gradientUnits="userSpaceOnUse">
<stop stop-color="#FF9800"/>
<stop offset="1" stop-color="#FF5D67"/>
</linearGradient>
<linearGradient id="paint16_linear_2047_243" x1="77.2034" y1="12.4652" x2="94.2339" y2="12.5793" gradientUnits="userSpaceOnUse">
<stop stop-color="#FF9800"/>
<stop offset="1" stop-color="#FF5D67"/>
</linearGradient>
<linearGradient id="paint17_linear_2047_243" x1="11.8602" y1="39.3523" x2="51.3599" y2="40.0517" gradientUnits="userSpaceOnUse">
<stop stop-color="#FF9800"/>
<stop offset="1" stop-color="#FF5D67"/>
</linearGradient>
<linearGradient id="paint18_linear_2047_243" x1="20.4511" y1="64.7038" x2="23.1713" y2="64.7211" gradientUnits="userSpaceOnUse">
<stop stop-color="#FF9800"/>
<stop offset="1" stop-color="#FF5D67"/>
</linearGradient>
<linearGradient id="paint19_linear_2047_243" x1="27.6342" y1="64.7038" x2="30.3544" y2="64.7211" gradientUnits="userSpaceOnUse">
<stop stop-color="#FF9800"/>
<stop offset="1" stop-color="#FF5D67"/>
</linearGradient>
<linearGradient id="paint20_linear_2047_243" x1="34.8174" y1="64.7038" x2="37.5376" y2="64.7211" gradientUnits="userSpaceOnUse">
<stop stop-color="#FF9800"/>
<stop offset="1" stop-color="#FF5D67"/>
</linearGradient>
<linearGradient id="paint21_linear_2047_243" x1="35.1285" y1="14.5128" x2="37.5464" y2="-1.07481" gradientUnits="userSpaceOnUse">
<stop stop-color="#FF9800"/>
<stop offset="1" stop-color="#FF5D67"/>
</linearGradient>
<linearGradient id="paint22_linear_2047_243" x1="11.4978" y1="0.260683" x2="14.1973" y2="-0.0568804" gradientUnits="userSpaceOnUse">
<stop stop-color="#FF9800"/>
<stop offset="1" stop-color="#FF5D67"/>
</linearGradient>
</defs>
</svg>
