<svg width="107" height="49" viewBox="0 0 107 49" fill="none" xmlns="http://www.w3.org/2000/svg">
<path d="M66.7876 14.4226C66.7876 6.4717 60.9351 0 53.5333 0C46.3038 0 40.2791 6.6566 40.2791 14.4226C40.2791 22.3736 46.3038 28.8453 53.5333 28.8453C60.9351 28.8453 66.9597 22.5585 66.7876 14.4226ZM62.8285 14.6075C62.8285 20.3396 58.6973 24.7774 53.5333 24.7774C48.1972 24.7774 44.2382 20.1547 44.2382 14.6075C44.2382 9.24528 48.5415 4.43773 53.5333 4.43773C58.8695 4.25283 62.8285 8.87547 62.8285 14.6075ZM99.4928 14.4226C99.4928 6.4717 93.6403 0 86.2386 0C79.009 0 72.9844 6.6566 72.9844 14.4226C72.9844 22.3736 79.009 28.8453 86.2386 28.8453C93.6403 28.8453 99.665 22.5585 99.4928 14.4226ZM95.5338 14.6075C95.5338 20.3396 91.4026 24.7774 86.2386 24.7774C80.9025 24.7774 76.9434 20.1547 76.9434 14.6075C76.9434 9.24528 81.2467 4.43773 86.2386 4.43773C91.5747 4.25283 95.5338 8.87547 95.5338 14.6075ZM73.1565 45.117H69.3696C69.5417 35.1321 71.7794 32.5434 73.1565 32.1736C75.7385 30.8792 79.6975 34.2076 81.0746 35.5019C82.9681 37.166 84.5173 38.0906 86.0665 38.0906C87.7878 38.0906 89.5091 36.9811 91.0583 35.317C92.4354 34.0226 96.5666 30.6943 98.9764 31.9887C100.354 32.5434 102.591 35.1321 102.935 45.117H73.1565ZM34.0823 14.4226C34.0823 6.4717 28.2298 0 20.8281 0C13.5985 0 7.57385 6.6566 7.57385 14.4226C7.57385 22.3736 13.5985 28.8453 20.8281 28.8453C28.2298 28.8453 34.2545 22.5585 34.0823 14.4226ZM30.1233 14.6075C30.1233 20.3396 25.9921 24.7774 20.8281 24.7774C15.492 24.7774 11.5329 20.1547 11.5329 14.6075C11.5329 9.24528 15.8362 4.43773 20.8281 4.43773C26.1642 4.25283 30.1233 8.87547 30.1233 14.6075ZM100.698 28.1057C95.1895 25.517 89.1649 31.6189 88.4763 32.3585C87.4435 33.4679 86.5829 33.8377 86.0665 33.8377C85.8943 33.8377 85.2058 33.8377 83.6566 32.3585C83.1402 31.434 77.1156 25.7019 71.6073 28.1057C71.4352 28.1057 71.4352 28.2906 71.263 28.2906C70.7466 28.6604 70.2302 29.0302 69.886 29.4C69.3696 28.8453 68.681 28.2906 67.9925 28.1057C62.4843 25.517 56.4596 31.6189 55.7711 32.3585C54.7383 33.4679 53.8776 33.8377 53.3612 33.8377C53.1891 33.8377 52.5005 33.8377 50.9513 32.3585C50.435 31.434 44.4103 25.7019 38.902 28.1057C38.7299 28.1057 38.7299 28.2906 38.5578 28.2906C38.2135 28.4755 37.525 28.8453 37.0086 29.4C36.4922 28.8453 35.8037 28.4755 35.2873 28.1057C29.779 25.517 23.7543 31.6189 23.0658 32.3585C22.033 33.4679 21.1723 33.8377 20.656 33.8377C20.4838 33.8377 19.7953 33.8377 18.2461 32.3585C17.7297 31.434 11.705 25.7019 6.19679 28.1057C6.02465 28.1057 6.02465 28.2906 5.85252 28.2906C4.64759 28.8453 3.61479 30.1396 2.75413 31.6189C1.0328 34.7623 0 39.3849 0 44.9321C0 46.2264 0 47.5208 0 49H11.705H40.6234H41.484H43.8939H65.4105H66.0991H77.1156H106.895C107.583 38.2755 104.829 29.9547 100.698 28.1057ZM65.4105 45.117H41.6562C41.6562 40.1245 40.7955 35.8717 39.4184 32.9132C39.9348 32.5434 40.4512 32.3585 40.6234 32.1736C43.2054 30.8792 47.1644 34.2076 48.5415 35.5019C50.4349 37.166 51.9841 38.0906 53.5333 38.0906C55.2547 38.0906 56.976 36.9811 58.5252 35.317C59.9023 34.0226 64.0334 30.6943 66.4433 31.9887C66.7876 32.1736 67.304 32.5434 67.8204 33.0981C66.2712 36.0566 65.5826 40.1245 65.4105 45.117ZM7.74598 45.117H3.95906C4.13119 35.1321 6.36892 32.5434 7.74598 32.1736C10.328 30.8792 14.287 34.2076 15.6641 35.5019C17.5576 37.166 19.1068 38.0906 20.656 38.0906C22.3773 38.0906 24.0986 36.9811 25.6478 35.317C27.0249 34.0226 31.1561 30.6943 33.5659 31.9887C34.943 32.5434 37.1807 35.1321 37.525 45.117H7.74598Z" fill="url(#paint0_linear_2047_193)"/>
<defs>
<linearGradient id="paint0_linear_2047_193" x1="-4.68993" y1="-1.43801e-05" x2="117.677" y2="5.06284" gradientUnits="userSpaceOnUse">
<stop stop-color="#FF9800"/>
<stop offset="1" stop-color="#FF5D67"/>
</linearGradient>
</defs>
</svg>
