<svg width="105" height="49" viewBox="0 0 105 49" fill="none" xmlns="http://www.w3.org/2000/svg">
<path d="M97.0979 0H49.9033C45.5446 0 42 3.66613 42 8.17146V40.8285C42 45.3351 45.5458 49 49.9033 49H97.0967C101.455 49 105 45.3339 105 40.8285V8.17266C105.001 3.66613 101.455 0 97.0979 0ZM81.427 22.3516L100.66 5.48481C101.196 6.24009 101.523 7.16442 101.523 8.17266V40.8297C101.523 41.446 101.401 42.0334 101.186 42.5705L81.427 22.3516ZM97.0979 3.59659C97.7066 3.59659 98.2876 3.72487 98.8163 3.95625L75.7779 24.1607C74.8746 24.9532 73.5481 24.9688 72.6263 24.2003L48.331 3.9095C48.8214 3.71528 49.3479 3.59659 49.9033 3.59659H97.0979ZM45.8206 42.5873C45.6015 42.0454 45.4785 41.4531 45.4785 40.8297V8.17266C45.4785 7.12126 45.8368 6.16456 46.4143 5.3913L66.3197 22.016L45.8206 42.5873ZM49.9033 45.4058C48.9107 45.4058 48.0028 45.0533 47.263 44.4803L68.1367 23.5337L71.1688 26.0657C72.0465 26.7994 73.1133 27.1651 74.1789 27.1651C75.2828 27.1651 76.3855 26.7731 77.2771 25.9914L79.6507 23.9102L99.7462 44.4731C99.0053 45.0509 98.0939 45.407 97.0967 45.407H49.9033V45.4058Z" fill="url(#paint0_linear_19_11)"/>
<path d="M1.17501 3H33.825C34.4736 3 35 2.552 35 2C35 1.448 34.4736 1 33.825 1H1.17501C0.526404 1 0 1.448 0 2C0 2.552 0.526404 3 1.17501 3Z" fill="url(#paint1_linear_19_11)"/>
<path d="M33.8267 12H10.1733C9.52566 12 9 12.448 9 13C9 13.552 9.52566 14 10.1733 14H33.8267C34.4743 14 35 13.552 35 13C35 12.448 34.4743 12 33.8267 12Z" fill="url(#paint2_linear_19_11)"/>
<path d="M33.8409 23H19.1591C18.5193 23 18 23.672 18 24.5C18 25.328 18.5193 26 19.1591 26H33.8409C34.4807 26 35 25.328 35 24.5C35 23.672 34.4807 23 33.8409 23Z" fill="url(#paint3_linear_19_11)"/>
<defs>
<linearGradient id="paint0_linear_19_11" x1="39.2386" y1="-1.43801e-05" x2="111.367" y2="1.75708" gradientUnits="userSpaceOnUse">
<stop stop-color="#FF9800"/>
<stop offset="1" stop-color="#FF5D67"/>
</linearGradient>
<linearGradient id="paint1_linear_19_11" x1="-1.53409" y1="0.999999" x2="34.5894" y2="12.9777" gradientUnits="userSpaceOnUse">
<stop stop-color="#FF9800"/>
<stop offset="1" stop-color="#FF5D67"/>
</linearGradient>
<linearGradient id="paint2_linear_19_11" x1="7.86039" y1="12" x2="35.9415" y2="18.9168" gradientUnits="userSpaceOnUse">
<stop stop-color="#FF9800"/>
<stop offset="1" stop-color="#FF5D67"/>
</linearGradient>
<linearGradient id="paint3_linear_19_11" x1="17.2549" y1="23" x2="36.5076" y2="25.0671" gradientUnits="userSpaceOnUse">
<stop stop-color="#FF9800"/>
<stop offset="1" stop-color="#FF5D67"/>
</linearGradient>
</defs>
</svg>
