<svg width="1920" height="800" viewBox="0 0 1920 800" fill="none" xmlns="http://www.w3.org/2000/svg">
<path opacity="0.3" fill-rule="evenodd" clip-rule="evenodd" d="M-3 0L42.6712 6.20841C88.3425 12.4168 179.685 24.8337 272.229 49.6673C363.572 74.501 454.914 111.752 546.257 149.002C637.599 186.252 730.144 223.502 821.486 211.086C912.829 198.669 1004.17 136.585 1095.51 117.96C1186.86 99.3346 1279.4 124.168 1370.74 149.002C1462.09 173.835 1553.43 198.669 1644.77 192.461C1737.31 186.252 1828.66 149.002 1874.33 130.377L1920 111.752V794.483H1874.33C1828.66 794.483 1737.31 794.483 1644.77 794.483C1553.43 794.483 1462.09 794.483 1370.74 794.483C1279.4 794.483 1186.86 794.483 1095.51 794.483C1004.17 794.483 912.829 794.483 821.486 794.483C730.144 794.483 637.599 794.483 546.257 794.483C454.914 794.483 363.572 794.483 272.229 794.483C179.685 794.483 88.3425 794.483 42.6712 794.483H-3V0Z" fill="#D7DCE0"/>
<path opacity="0.3" fill-rule="evenodd" clip-rule="evenodd" d="M-3 241.954L33.0562 229.71C67.9106 217.466 140.023 192.979 210.934 186.857C281.844 180.736 352.755 192.979 424.867 235.832C495.778 278.685 566.689 352.148 637.599 376.634C709.712 401.122 780.622 376.634 851.533 388.878C922.444 401.122 994.556 450.096 1065.47 474.584C1136.38 499.072 1207.29 499.072 1279.4 456.218C1350.31 413.366 1421.22 327.66 1492.13 297.05C1564.24 266.442 1635.16 290.928 1706.07 315.416C1776.98 339.904 1849.09 364.391 1883.94 376.634L1920 388.878V794.483H1883.94C1849.09 794.483 1776.98 794.483 1706.07 794.483C1635.16 794.483 1564.24 794.483 1492.13 794.483C1421.22 794.483 1350.31 794.483 1279.4 794.483C1207.29 794.483 1136.38 794.483 1065.47 794.483C994.556 794.483 922.444 794.483 851.533 794.483C780.622 794.483 709.712 794.483 637.599 794.483C566.689 794.483 495.778 794.483 424.867 794.483C352.755 794.483 281.844 794.483 210.934 794.483C140.023 794.483 67.9106 794.483 33.0562 794.483H-3V241.954Z" fill="#D7DCE0"/>
<path fill-rule="evenodd" clip-rule="evenodd" d="M-3 603.115L25.845 590.767C54.69 578.42 113.582 553.728 171.272 557.843C230.164 561.959 287.854 594.883 346.746 598.999C404.436 603.115 463.327 578.42 521.018 578.42C579.909 578.42 637.599 603.115 696.491 603.115C754.181 603.115 813.073 578.421 870.763 582.536C929.655 586.652 987.345 619.576 1046.24 636.038C1103.93 652.5 1162.82 652.5 1220.51 644.27C1279.4 636.038 1337.09 619.576 1395.98 627.808C1453.67 636.038 1512.56 668.963 1570.25 656.616C1629.15 644.27 1686.84 586.652 1745.73 566.074C1803.42 545.497 1862.31 561.959 1891.15 570.19L1920 578.42V800H1891.15C1862.31 800 1803.42 800 1745.73 800C1686.84 800 1629.15 800 1570.25 800C1512.56 800 1453.67 800 1395.98 800C1337.09 800 1279.4 800 1220.51 800C1162.82 800 1103.93 800 1046.24 800C987.345 800 929.655 800 870.763 800C813.073 800 754.181 800 696.491 800C637.599 800 579.909 800 521.018 800C463.327 800 404.436 800 346.746 800C287.854 800 230.164 800 171.272 800C113.582 800 54.69 800 25.845 800H-3V603.115Z" fill="#D7DCE0"/>
</svg>
