<svg width="567" height="404" viewBox="0 0 567 404" fill="none" xmlns="http://www.w3.org/2000/svg">
<path d="M88.7276 399.341C58.8287 407.355 28.6011 404.973 3.64243 392.639C0.407292 391.04 -0.921246 387.122 0.676943 383.886C2.27513 380.65 6.19248 379.321 9.42762 380.92C31.5443 391.847 58.5098 393.906 85.3449 386.714C127.004 375.549 161.64 356.17 185.515 330.676C199.281 315.972 209.373 299.239 215.128 281.931C140.082 284.865 115.126 256.118 106.896 238.292C96.7652 216.36 101.708 189.507 119.217 171.478C134.757 155.471 156.063 151.048 176.216 159.648C214.603 176.032 236.526 213.205 233.451 256.665C233.193 260.271 232.762 263.869 232.169 267.465C269.325 262.429 302.95 243.105 329.906 211.143C335.79 204.158 341.344 196.577 346.476 188.534C331.631 184.603 318.568 180.068 307.284 175.425C242.189 148.671 207.405 108.258 196.564 79.3441C188.375 57.5038 192.593 39.5998 207.85 31.4703C243.964 12.2348 279.439 51.3646 295.583 73.2419C296.919 67.5836 298.738 60.8419 301.12 53.7787C309.723 28.2655 321.201 11.6014 335.236 4.24939C346.724 -1.76314 359.391 -1.39646 372.904 5.35712C395.486 16.6451 403.553 56.3268 393.456 106.456C388.347 131.815 379.044 157.102 366.7 179.901C414.196 189.857 477.727 192.6 557.523 174.084C561.038 173.268 564.548 175.459 565.364 178.975C566.18 182.49 563.996 185.991 560.475 186.818C476.215 206.368 409.368 202.795 359.844 191.79C353.745 201.73 347.062 211.071 339.892 219.571C309.615 255.455 271.412 276.6 229.075 281C223.077 301.901 211.417 322.114 195.041 339.605C169.506 366.894 132.745 387.544 88.7276 399.341ZM146.67 169.583C140.123 171.337 133.96 175.032 128.573 180.579C115.022 194.541 110.986 216.014 118.741 232.805C125.739 247.946 148.01 272.482 218.64 268.679C219.501 264.372 220.091 260.057 220.393 255.746C223.07 218.018 204.166 185.803 171.07 171.673C162.811 168.145 154.459 167.495 146.67 169.583ZM220.415 40.4579C218.216 41.0473 216.078 41.8992 213.985 43.0182C201.122 49.8761 206.06 67.5037 208.787 74.7635C218.206 99.8828 250.952 138.16 312.235 163.345C323.971 168.164 337.711 172.877 353.459 176.854C366.058 154.4 375.533 129.184 380.638 103.88C389.267 61.0644 383.679 25.3618 367.051 17.0582C357.381 12.2261 348.951 11.8218 341.291 15.8365C319.048 27.4761 307.835 73.9086 305.4 90.8127C305.001 93.5561 302.939 95.7646 300.209 96.2891C297.495 96.8366 294.736 95.6053 293.318 93.2319C293.207 93.0545 282.187 74.7534 266.335 59.5381C249.342 43.2244 233.929 36.8359 220.415 40.4579Z" fill="#FFC17B"/>
<g clip-path="url(#clip0_200_3968)">
<path d="M507.203 150.721L445.385 133.7C442.577 132.927 441.173 132.541 439.937 132.64C437.863 132.807 435.97 133.883 434.765 135.579C434.046 136.59 433.66 137.994 432.886 140.802L431.848 144.571L422.508 178.495C416.317 200.978 429.525 224.223 452.008 230.413C474.491 236.604 497.736 223.396 503.926 200.913L513.267 166.989L514.305 163.22C515.078 160.412 515.465 159.008 515.365 157.771C515.198 155.698 514.122 153.805 512.426 152.6C511.415 151.881 510.011 151.495 507.203 150.721Z" fill="#FFE5E9"/>
<path d="M446.403 250.767L436.603 248.069C423.279 244.4 409.505 252.227 405.836 265.55C405.378 267.216 406.356 268.937 408.022 269.396L469.839 286.417C471.505 286.876 473.227 285.897 473.685 284.232C477.354 270.909 469.527 257.134 456.204 253.466L446.403 250.767Z" fill="#FFE5E9"/>
<path d="M452.008 230.413C429.525 224.223 416.317 200.978 422.508 178.495M452.008 230.413C474.491 236.604 497.736 223.396 503.926 200.913M452.008 230.413L446.403 250.767M422.508 178.495L432.886 140.802M422.508 178.495L431.848 144.571M503.926 200.913L514.305 163.22M503.926 200.913L513.267 166.989M514.305 163.22C515.078 160.412 515.465 159.008 515.365 157.771C515.198 155.698 514.122 153.805 512.426 152.6C511.415 151.881 510.011 151.495 507.203 150.721L445.385 133.7C442.577 132.927 441.173 132.541 439.937 132.64C437.863 132.807 435.97 133.883 434.765 135.579C434.046 136.59 433.66 137.994 432.886 140.802M514.305 163.22L513.267 166.989M432.886 140.802L431.848 144.571M456.204 253.466L436.603 248.069M456.204 253.466C469.527 257.134 477.354 270.909 473.685 284.232C473.227 285.897 471.505 286.876 469.839 286.417L408.022 269.396C406.356 268.937 405.378 267.216 405.836 265.55C409.505 252.227 423.279 244.4 436.603 248.069M456.204 253.466L446.403 250.767M436.603 248.069L446.403 250.767M513.267 166.989L530.229 171.66C533.391 172.53 534.971 172.965 536.076 173.825C537.549 174.972 538.506 176.656 538.737 178.508C538.91 179.897 538.475 181.478 537.604 184.639L536.67 188.032C534.933 194.341 534.064 197.496 532.658 199.894C528.842 206.399 521.844 210.375 514.302 210.323C511.523 210.304 508.368 209.435 502.058 207.698M431.848 144.571L414.886 139.901C411.725 139.031 410.144 138.595 408.755 138.769C406.903 138.999 405.219 139.957 404.072 141.429C403.212 142.534 402.777 144.115 401.907 147.276L400.973 150.668C399.235 156.978 398.367 160.133 398.347 162.912C398.295 170.455 402.271 177.452 408.777 181.268C411.175 182.674 414.33 183.543 420.639 185.28" stroke="#DD0B2F" stroke-width="5.70411" stroke-linecap="round" stroke-linejoin="round"/>
</g>
<g clip-path="url(#clip1_200_3968)">
<path d="M263.887 140.951L229.524 155.023C227.963 155.662 227.183 155.981 226.651 156.465C225.76 157.275 225.272 158.438 225.32 159.642C225.348 160.36 225.668 161.14 226.307 162.701L227.165 164.796L234.887 183.654C240.005 196.151 254.285 202.134 266.783 197.016C279.281 191.899 285.263 177.619 280.146 165.121L272.424 146.264L271.566 144.168C270.926 142.608 270.607 141.827 270.123 141.295C269.313 140.404 268.15 139.917 266.946 139.964C266.228 139.993 265.448 140.312 263.887 140.951Z" fill="#FFE5E9"/>
<path d="M271.416 208.331L265.969 210.561C258.563 213.594 255.017 222.056 258.05 229.462C258.429 230.388 259.487 230.831 260.413 230.452L294.776 216.381C295.701 216.002 296.144 214.944 295.765 214.018C292.733 206.612 284.27 203.067 276.864 206.1L271.416 208.331Z" fill="#FFE5E9"/>
<path d="M266.783 197.016C254.285 202.134 240.005 196.151 234.887 183.654M266.783 197.016C279.281 191.899 285.263 177.619 280.146 165.121M266.783 197.016L271.416 208.331M234.887 183.654L226.307 162.701M234.887 183.654L227.165 164.796M280.146 165.121L271.566 144.168M280.146 165.121L272.424 146.264M271.566 144.168C270.926 142.608 270.607 141.827 270.123 141.295C269.313 140.404 268.15 139.917 266.946 139.964C266.228 139.993 265.448 140.312 263.887 140.951L229.524 155.023C227.963 155.662 227.183 155.981 226.651 156.465C225.76 157.275 225.272 158.438 225.32 159.642C225.348 160.36 225.668 161.14 226.307 162.701M271.566 144.168L272.424 146.264M226.307 162.701L227.165 164.796M276.864 206.1L265.969 210.561M276.864 206.1C284.27 203.067 292.733 206.612 295.765 214.018C296.144 214.944 295.701 216.002 294.776 216.381L260.413 230.452C259.487 230.831 258.429 230.388 258.05 229.462C255.017 222.056 258.563 213.594 265.969 210.561M276.864 206.1L271.416 208.331M265.969 210.561L271.416 208.331M272.424 146.264L281.852 142.403C283.61 141.683 284.488 141.323 285.299 141.326C286.38 141.331 287.415 141.764 288.176 142.532C288.747 143.107 289.107 143.986 289.826 145.743L290.599 147.629C292.035 151.136 292.753 152.89 292.957 154.487C293.509 158.82 291.708 163.118 288.232 165.763C286.951 166.738 285.198 167.456 281.69 168.892M227.165 164.796L217.736 168.657C215.979 169.377 215.1 169.737 214.525 170.308C213.758 171.069 213.324 172.104 213.32 173.185C213.316 173.995 213.676 174.874 214.396 176.631L215.168 178.517C216.604 182.024 217.322 183.778 218.297 185.059C220.942 188.535 225.241 190.336 229.574 189.783C231.171 189.58 232.924 188.862 236.432 187.425" stroke="#DD0B2F" stroke-width="3.30337" stroke-linecap="round" stroke-linejoin="round"/>
</g>
<path d="M565.366 178.975C564.55 175.459 557.525 174.084 557.525 174.084C557.525 174.084 532.009 179.543 519.896 181.489L519.896 194.723C532.942 192.679 560.477 186.818 560.477 186.818C560.477 186.818 566.182 182.49 565.366 178.975Z" fill="#FFC17B"/>
<path d="M283.201 156.892V156.892C273.717 152.149 264.711 146.504 256.308 140.037L250.41 135.497" stroke="#FFC17B" stroke-width="12.8342" stroke-linecap="round"/>
<defs>
<clipPath id="clip0_200_3968">
<rect width="168.897" height="168.895" fill="white" transform="matrix(0.964121 0.265462 -0.26547 0.964119 398.617 106.223)"/>
</clipPath>
<clipPath id="clip1_200_3968">
<rect width="97.8118" height="97.8107" fill="white" transform="matrix(0.925417 -0.37895 0.378959 0.925413 198.363 158.974)"/>
</clipPath>
</defs>
</svg>
