<svg width="74" height="119" viewBox="0 0 74 119" fill="none" xmlns="http://www.w3.org/2000/svg">
<path fill-rule="evenodd" clip-rule="evenodd" d="M73.9973 0.573695C74.0692 0.990648 72.7091 4.45342 70.9747 8.26791C62.8316 26.1797 58.3241 34.9431 53.2285 42.7689C50.1903 47.4351 46.8321 52.8838 45.7659 54.8763C43.4282 59.2466 42.678 59.1597 37.3778 53.9058C33.9452 50.503 32.1424 49.6033 31.7664 51.1064C31.6832 51.441 29.9301 53.4999 27.8719 55.6823C23.5511 60.264 24.0723 60.9472 22.126 48.1478C20.5671 37.898 22.2853 39.2581 8.55059 37.4033C3.88944 36.7746 0.0430886 36.0667 0.00259332 35.8318C-0.132001 35.0514 5.00486 31.2281 7.88061 29.9689C9.43771 29.2873 12.949 27.6373 15.6831 26.3019C18.4172 24.9673 26.3027 21.4696 33.2067 18.5305C40.1105 15.5906 48.6425 11.8234 52.1668 10.1595C55.691 8.49485 60.6657 6.20035 63.2216 5.05945C65.7774 3.91855 68.6967 2.3627 69.7087 1.60117C71.8769 -0.0282775 73.8134 -0.492771 73.9973 0.573695ZM70.3713 4.22406C70.0392 4.68705 66.7523 8.14291 63.0675 11.9035C44.2062 31.1518 35.3757 40.113 32.113 43.3167C30.1309 45.2619 27.9268 48.1695 27.214 49.7783C26.5012 51.3863 25.6213 52.8698 25.2586 53.0746C24.8756 53.2914 24.0584 50.3117 23.3092 45.9676L22.0192 38.4872L30.5692 31.1412C38.4394 24.3797 45.7509 18.9329 51.891 15.2573C53.2346 14.4538 54.6267 13.4853 54.9848 13.1061C56.4836 11.5192 71.2552 2.99178 70.3713 4.22406ZM59.5716 8.45041C58.8209 9.00848 54.0109 12.2581 48.8828 15.6721C39.8826 21.663 36.0281 24.6398 27.48 32.2025C25.2754 34.1522 22.6833 36.1009 21.7204 36.5314C19.9683 37.3143 15.0945 37.0063 6.89082 35.5921L2.52636 34.8399L5.74923 32.7004C9.44054 30.2503 12.9225 28.6263 39.2751 17.064C49.7901 12.4506 58.9656 8.39662 59.6653 8.05592C60.5878 7.60601 60.5626 7.71423 59.5716 8.45041ZM69.0425 8.80608C68.3545 10.9462 61.4376 25.9006 59.4986 29.4397C59.111 30.148 57.9707 32.2642 56.9642 34.1426C55.9584 36.0207 54.2031 38.973 53.0639 40.703C51.924 42.4332 49.2677 46.6479 47.1591 50.0699C43.4367 56.112 43.2775 56.2606 41.6311 55.2191C39.002 53.5551 31.5255 45.9013 31.945 45.3022C32.1506 45.0077 35.4094 41.7551 39.1858 38.0748C51.3471 26.2206 65.2766 12.0381 67.5837 9.15988L69.8286 6.35911L69.0425 8.80608ZM31.6946 48.516C32.2395 49.4346 27.9909 54.6447 27.1714 54.0629C26.689 53.721 29.8087 47.7641 30.5361 47.6379C30.8545 47.5827 31.3754 47.9776 31.6946 48.516ZM24.3206 65.2263C24.4134 65.7644 24.2503 66.5779 23.9577 67.0333C22.9333 68.6294 21.9507 78.241 22.3073 83.171L22.6673 88.1469L24.292 86.0265C26.437 83.2268 29.427 83.3314 30.6111 86.246C32.3249 90.4693 30.0188 94.2767 26.0772 93.731C24.4397 93.5042 24.4437 93.626 26.3719 103.123C27.8726 110.513 28.7347 113.271 30.088 115.01C31.0568 116.257 31.8258 117.868 31.7963 118.59C31.7596 119.484 30.9745 118.923 29.3374 116.833C27.1345 114.02 26.7529 112.815 24.8007 102.504C23.629 96.3128 22.173 89.5891 21.5656 87.5629C20.3617 83.5464 20.4898 76.641 21.9095 69.055C22.6986 64.8394 23.9195 62.9007 24.3206 65.2263ZM29.2829 87.3576C30.1306 89.0004 29.3108 92.0331 27.9561 92.268C26.7503 92.4771 24.9525 91.2139 24.7452 90.0119C24.5317 88.7739 26.2771 86.3581 27.545 86.1382C28.105 86.0411 28.8864 86.59 29.2829 87.3576Z" fill="#C8554E"/>
</svg>
