<svg width="115" height="82" viewBox="0 0 115 82" fill="none" xmlns="http://www.w3.org/2000/svg">
<path d="M18.0425 81.0545C11.9627 82.6809 5.81595 82.1974 0.740679 79.694C0.0828216 79.3696 -0.187333 78.5743 0.137654 77.9175C0.462642 77.2607 1.25922 76.991 1.91708 77.3154C6.41445 79.5333 11.8978 79.9513 17.3547 78.4915C25.8258 76.2253 32.869 72.2919 37.724 67.1174C40.5233 64.133 42.5754 60.7365 43.7456 57.2236C28.4853 57.8192 23.4105 51.9843 21.737 48.3663C19.6769 43.9147 20.682 38.4642 24.2423 34.805C27.4024 31.556 31.735 30.6582 35.833 32.4038C43.6389 35.7292 48.097 43.2744 47.4715 52.0954C47.4191 52.8272 47.3316 53.5575 47.211 54.2874C54.7665 53.2653 61.6041 49.343 67.0856 42.8557C68.282 41.438 69.4113 39.8994 70.4549 38.2668C67.4363 37.4689 64.7799 36.5485 62.4854 35.6061C49.2484 30.1757 42.1752 21.9731 39.9708 16.1045C38.3055 11.6716 39.1632 8.03759 42.2658 6.38753C49.6095 2.4833 56.8231 10.4255 60.1059 14.8659C60.3776 13.7175 60.7476 12.3491 61.2318 10.9155C62.9813 5.73706 65.3153 2.35475 68.1693 0.862499C70.5054 -0.357865 73.0811 -0.283439 75.829 1.08734C80.4211 3.37846 82.0613 11.4327 80.0081 21.6073C78.9692 26.7545 77.0775 31.887 74.5674 36.5146C84.2257 38.5353 97.1444 39.0921 113.371 35.334C114.085 35.1683 114.799 35.6129 114.965 36.3265C115.131 37.0401 114.687 37.7507 113.971 37.9185C96.837 41.8866 83.2438 41.1614 73.1734 38.9277C71.933 40.9453 70.574 42.8412 69.1161 44.5664C62.9593 51.8498 55.1909 56.1417 46.5817 57.0347C45.3621 61.2769 42.991 65.3796 39.6611 68.9297C34.4685 74.4685 26.9933 78.66 18.0425 81.0545ZM29.8249 34.4202C28.4936 34.7764 27.2404 35.5262 26.1449 36.6521C23.3894 39.486 22.5687 43.8443 24.1456 47.2525C25.5686 50.3257 30.0975 55.3058 44.4598 54.5339C44.635 53.6597 44.7548 52.7838 44.8164 51.9089C45.3607 44.2511 41.5167 37.7125 34.7867 34.8444C33.1072 34.1284 31.4089 33.9965 29.8249 34.4202ZM44.8208 8.21175C44.3736 8.33138 43.9389 8.5043 43.5132 8.73141C40.8975 10.1234 41.9017 13.7012 42.4563 15.1748C44.3716 20.2732 51.0303 28.0424 63.4921 33.1542C65.8786 34.1322 68.6727 35.0888 71.8749 35.8961C74.4369 31.3386 76.3635 26.2206 77.4017 21.0845C79.1563 12.3943 78.0201 5.14769 74.6388 3.46231C72.6724 2.48153 70.9582 2.39948 69.4005 3.21435C64.8775 5.57683 62.5973 15.0013 62.1022 18.4323C62.0211 18.9891 61.6017 19.4374 61.0467 19.5438C60.4948 19.6549 59.9338 19.405 59.6453 18.9233C59.6229 18.8873 57.3819 15.1727 54.1584 12.0845C50.703 8.77328 47.5688 7.4766 44.8208 8.21175Z" fill="#FFC17B"/>
</svg>
