<svg width="22" height="22" viewBox="0 0 22 22" fill="none" xmlns="http://www.w3.org/2000/svg">
<path d="M5 19.088H7.61029C7.95063 19.088 8.28888 19.1285 8.61881 19.2095L11.3769 19.8798C11.9753 20.0255 12.5988 20.0397 13.2035 19.9223L16.253 19.329C17.0585 19.1721 17.7996 18.7863 18.3803 18.2214L20.5379 16.1226C21.154 15.5242 21.154 14.5533 20.5379 13.9539C19.9832 13.4143 19.1047 13.3536 18.4771 13.8112L15.9626 15.6457C15.6025 15.909 15.1643 16.0507 14.7137 16.0507H12.2855L13.8311 16.0506C14.7022 16.0506 15.4079 15.3642 15.4079 14.5168V14.21C15.4079 13.5064 14.9156 12.8928 14.2141 12.7227L11.8286 12.1426C11.4404 12.0485 11.0428 12.0009 10.6431 12.0009C9.67833 12.0009 7.93189 12.7997 7.93189 12.7997L5 14.0258M1 13.6009L1 19.4009C1 19.9609 1 20.2409 1.10899 20.4549C1.20487 20.643 1.35785 20.796 1.54601 20.8919C1.75992 21.0009 2.03995 21.0009 2.6 21.0009H3.4C3.96005 21.0009 4.24008 21.0009 4.45399 20.8919C4.64215 20.796 4.79513 20.643 4.89101 20.4549C5 20.2409 5 19.9609 5 19.4009V13.6009C5 13.0408 5 12.7608 4.89101 12.5469C4.79513 12.3587 4.64215 12.2057 4.45399 12.1099C4.24008 12.0009 3.96005 12.0009 3.4 12.0009H2.6C2.03995 12.0009 1.75992 12.0009 1.54601 12.1099C1.35785 12.2057 1.20487 12.3587 1.10899 12.5469C1 12.7608 1 13.0408 1 13.6009ZM16.1914 2.59313C15.5946 1.34427 14.2186 0.682656 12.8804 1.32124C11.5423 1.95983 10.9722 3.47425 11.5325 4.8037C11.8787 5.62533 12.8707 7.22087 13.5781 8.3199C13.8394 8.72598 13.9701 8.92902 14.161 9.0478C14.3247 9.14968 14.5297 9.2046 14.7224 9.19823C14.9471 9.1908 15.1618 9.0803 15.5911 8.8593C16.7532 8.26118 18.4101 7.37542 19.1208 6.837C20.2707 5.96579 20.5556 4.36445 19.6947 3.14711C18.8337 1.92978 17.3327 1.80999 16.1914 2.59313Z" stroke="black" stroke-width="2" stroke-linecap="round" stroke-linejoin="round"/>
</svg>
