<svg width="133" height="97" viewBox="0 0 133 97" fill="none" xmlns="http://www.w3.org/2000/svg">
<path fill-rule="evenodd" clip-rule="evenodd" d="M98.7015 0.654645C98.2424 1.23955 96.7096 6.08734 95.2967 11.4276C93.883 16.7678 92.5644 21.2982 92.365 21.4945C92.1657 21.6916 88.7898 22.6013 84.8622 23.5175C76.3766 25.4956 68.5024 28.3898 68.4999 29.5318C68.4991 29.9817 70.8616 31.1172 73.7486 32.0555C79.5076 33.9264 79.6416 33.7857 69.8995 36.0836C47.8146 41.2938 23.1512 56.575 8.90577 73.8752C3.74562 80.1422 0 85.4523 0 86.501C0 87.7993 2.13669 87.2217 4.96328 85.1594C8.7362 82.4067 9.55184 82.5744 9.79504 86.1509C9.90919 87.8214 10.1499 89.334 10.3302 89.5123C10.5106 89.6915 11.7704 89.0542 13.1295 88.0971C15.8784 86.1615 16.0885 86.3055 16.8867 90.6813C17.4873 93.9723 18.5908 94.4566 21.1428 92.5481C23.4408 90.8294 23.751 90.9651 24.8164 94.158C25.3417 95.7327 26.2086 97.0114 26.7422 96.9999C27.2749 96.9885 29.3868 94.3503 31.4341 91.1378C42.3798 73.9595 57.8868 59.3481 73.2084 51.7754C80.7534 48.0459 91.8207 44.4433 91.8207 45.717C91.8207 45.8446 91.1159 47.9617 90.2556 50.4208C87.9121 57.1132 87.372 60.2087 88.5483 60.2087C89.095 60.2087 92.3021 58.5522 95.6747 56.5275C99.0464 54.5028 102.072 52.8381 102.397 52.8283C102.722 52.8185 103.919 52.0904 105.056 51.2102C108.348 48.6636 111.757 49.1978 120.694 53.6643C130.824 58.7264 131.794 58.8221 131.05 54.6869C130.264 50.307 126.863 40.8037 124.914 37.5364C122.582 33.6278 122.804 32.2878 126.565 27.5824C130.334 22.8664 133.621 17.014 132.9 16.3015C132.633 16.0373 127.655 16.2639 121.838 16.8054C113.138 17.6153 111.148 17.5973 110.626 16.7073C106.257 9.25564 101.403 1.50215 100.576 0.654645C99.7231 -0.218215 99.3872 -0.218215 98.7015 0.654645ZM104.137 10.0549C105.78 12.7986 107.782 16.2279 108.586 17.675C109.958 20.1447 110.262 20.2772 113.549 19.8412C115.475 19.5852 119.974 19.1295 123.547 18.8285C131.043 18.1961 130.995 17.9531 124.934 25.903C120.191 32.125 120.025 33.3734 123.194 39.0736C126.141 44.3745 129.38 54.4824 128.133 54.4824C127.694 54.4824 123.971 52.8258 119.857 50.8011C115.743 48.7765 111.46 47.1199 110.338 47.1199C108.111 47.1199 103.957 49.0211 96.5284 53.4377C93.8862 55.0092 91.5179 56.0923 91.2673 55.8436C90.795 55.3765 92.8241 49.062 95.8343 41.6308C96.784 39.2871 97.2927 37.2199 96.966 37.0366C96.1511 36.5818 86.9145 33.6834 79.5192 31.5614C76.0987 30.5806 73.7378 29.504 74.1423 29.1097C74.5386 28.7228 79.0874 27.3166 84.2509 25.9848C89.4135 24.6522 93.9144 23.2492 94.2511 22.8655C94.5886 22.4827 95.9063 18.1986 97.1802 13.3451C98.4541 8.49158 99.8687 4.64346 100.324 4.79398C100.779 4.94369 102.495 7.31113 104.137 10.0549ZM87.6276 36.4329C88.4929 36.9744 87.937 37.3172 85.5596 37.7074C79.0304 38.7791 64.722 43.3389 56.2505 47.0479C40.2158 54.0676 28.1997 62.0396 15.143 74.3202C10.9573 78.2575 7.32744 81.4781 7.07514 81.4781C5.7698 81.4781 7.10661 79.3226 11.6472 74.105C21.4042 62.8945 36.5339 51.6077 50.0464 45.4601C65.2994 38.5214 83.8456 34.0663 87.6276 36.4329ZM82.7214 42.1159C57.8429 49.2657 36.9715 64.5372 23.4763 85.4662C21.7111 88.2034 19.9921 90.4506 19.6563 90.4596C19.3204 90.4694 18.8059 88.9961 18.513 87.1866C17.8794 83.2656 16.9504 82.4966 14.9792 84.2612C12.4586 86.5174 11.4445 85.9038 12.0699 82.5007C12.4901 80.2094 13.8087 78.336 17.2772 75.099C26.6239 66.3753 38.4993 58.0965 50.1142 52.2066C61.6927 46.3354 81.2274 39.8393 87.271 39.8507C90.0422 39.8564 89.3027 40.2246 82.7214 42.1159ZM91.6702 42.6329C91.4361 42.8652 89.0471 43.6138 86.3619 44.2968C79.8261 45.9591 66.1324 52.6238 59.8447 57.2016C49.2705 64.9011 35.4031 79.9296 29.3297 90.2722C28.471 91.7349 27.5388 92.9309 27.2584 92.9309C26.9779 92.9309 26.3285 91.577 25.8148 89.9221C24.9223 87.0459 25.0423 86.6908 28.5554 81.8218C41.1911 64.3106 62.5382 49.6845 83.5486 44.1439C90.8917 42.2075 92.3807 41.9302 91.6702 42.6329Z" fill="url(#paint0_linear_2047_291)"/>
<defs>
<linearGradient id="paint0_linear_2047_291" x1="-5.82954" y1="-2.84667e-05" x2="146.429" y2="3.95551" gradientUnits="userSpaceOnUse">
<stop stop-color="#FF9800"/>
<stop offset="1" stop-color="#FF5D67"/>
</linearGradient>
</defs>
</svg>
