<svg width="108" height="78" viewBox="0 0 108 78" fill="none" xmlns="http://www.w3.org/2000/svg">
<path d="M27.1294 72.1224C26.4833 71.1994 26.6795 69.9311 27.5726 69.2442C30.506 66.9884 36.6027 62.2698 38.3119 60.7148C34.003 58.2576 30.3012 55.7612 27.1644 53.3795C9.06592 39.6483 1.58084 24.198 0.613942 14.3133C-0.116856 6.84669 2.69954 1.636 8.14679 0.380847C21.0398 -2.58791 28.8481 12.5214 32.0608 20.6617C32.9518 19.0152 34.0845 17.0724 35.4196 15.0765C40.2429 7.86703 45.2235 3.64592 50.2239 2.53054C54.3164 1.61923 58.243 2.78772 61.8998 6.01086C68.0104 11.3977 67.2093 24.3964 59.8592 39.1284C56.1405 46.581 51.1177 53.6619 45.3528 59.7168C59.3589 66.7641 78.978 72.9057 105.458 73.7974C106.625 73.8365 107.538 74.8093 107.499 75.9694C107.459 77.1296 106.484 78.0353 105.315 77.9989C77.3534 77.0569 56.7673 70.3814 42.216 62.8393C40.1545 64.7822 33.3566 70.0824 30.1244 72.582C29.178 73.3139 27.8154 73.1026 27.1294 72.1224ZM11.3201 4.21898C10.5837 4.21898 9.8445 4.30564 9.09684 4.47896C4.50405 5.53843 4.5715 11.4256 4.81603 13.908C5.65645 22.4955 12.6834 37.1129 29.7222 50.039C32.9855 52.5129 36.884 55.1211 41.4712 57.6677C47.2866 51.7414 52.3572 44.6969 56.0703 37.261C62.3495 24.6788 63.5919 13.1224 59.0918 9.15852C56.475 6.85228 53.8751 6.02483 51.1458 6.63424C43.2223 8.39816 35.8328 21.8889 33.6573 26.9375C33.3031 27.7566 32.4739 28.2709 31.5773 28.2066C30.6835 28.1507 29.9246 27.5385 29.68 26.6831C29.6604 26.6188 27.749 20.016 24.0698 13.9695C20.1263 7.48685 15.8455 4.21898 11.3201 4.21898Z" fill="#FFC17B"/>
</svg>
